/* XPM */
static char * collectable_xpm[] = {
"64 64 402 2",
"  	c #03C1B5",
". 	c #6DBBB6",
"+ 	c #1BC1B5",
"@ 	c #98B3B8",
"# 	c #ED98BD",
"$ 	c #C9A6BB",
"% 	c #15C1B5",
"& 	c #47BEB5",
"* 	c #9DB1B8",
"= 	c #A1B0B8",
"- 	c #79B8B6",
"; 	c #16C1B5",
"> 	c #66BBB6",
", 	c #EB99BD",
"' 	c #EE98BD",
") 	c #AAAFB9",
"! 	c #0EC1B5",
"~ 	c #77B9B6",
"{ 	c #A2B0B8",
"] 	c #A5AFB8",
"^ 	c #6BBAB6",
"/ 	c #ADADB8",
"( 	c #F69BC2",
"_ 	c #F5A1C5",
": 	c #EC97BC",
"< 	c #B2ADAE",
"[ 	c #CCA7AF",
"} 	c #E89BBB",
"| 	c #89BF68",
"1 	c #B3B192",
"2 	c #E799B9",
"3 	c #F69AC2",
"4 	c #F69FC4",
"5 	c #CEA3B2",
"6 	c #41C1A6",
"7 	c #13C1B4",
"8 	c #4DC19F",
"9 	c #C8A7A9",
"0 	c #F5A6C8",
"a 	c #F4AFCD",
"b 	c #F4ADCC",
"c 	c #F59EC4",
"d 	c #E69CAE",
"e 	c #F4ACCB",
"f 	c #E29EA6",
"g 	c #8FC137",
"h 	c #8EC13C",
"i 	c #81C164",
"j 	c #6CC185",
"k 	c #46C1A3",
"l 	c #72C17C",
"m 	c #8BC148",
"n 	c #C6AC87",
"o 	c #F5A3C7",
"p 	c #F3ABCA",
"q 	c #F19FC3",
"r 	c #F5A9CA",
"s 	c #D9A39C",
"t 	c #52C19C",
"u 	c #80C164",
"v 	c #ACB366",
"w 	c #DA989D",
"x 	c #F2A8C8",
"y 	c #F0A1C3",
"z 	c #F5A2C6",
"A 	c #DA9C9E",
"B 	c #A5B75D",
"C 	c #3CC1A8",
"D 	c #7EC16A",
"E 	c #ADB268",
"F 	c #E982AE",
"G 	c #F58FBB",
"H 	c #F3AAC9",
"I 	c #F1A2C4",
"J 	c #F694BE",
"K 	c #EA83AF",
"L 	c #BEA87D",
"M 	c #5EC193",
"N 	c #8DC140",
"O 	c #95BE42",
"P 	c #E487A9",
"Q 	c #EE87B3",
"R 	c #F2A6C7",
"S 	c #F189B6",
"T 	c #AFB26A",
"U 	c #6CC184",
"V 	c #B8AC76",
"W 	c #F28BB7",
"X 	c #F6A0C5",
"Y 	c #EF9EC1",
"Z 	c #F3ADCB",
"` 	c #F5A5C8",
" .	c #F48DBA",
"..	c #E982AF",
"+.	c #DC8FA0",
"@.	c #90C138",
"#.	c #66C18B",
"$.	c #C6A287",
"%.	c #F28AB7",
"&.	c #F2A9C8",
"*.	c #F0A0C3",
"=.	c #F48CB9",
"-.	c #E685AB",
";.	c #A6B75D",
">.	c #87BA2F",
",.	c #83B72B",
"'.	c #8ABD32",
").	c #89BC31",
"!.	c #8DC035",
"~.	c #46C1A4",
"{.	c #8EC13B",
"].	c #85B92E",
"^.	c #72AA15",
"/.	c #70A811",
"(.	c #7EB325",
"_.	c #84B82C",
":.	c #74AB19",
"<.	c #A49A69",
"[.	c #E086A5",
"}.	c #EE86B3",
"|.	c #F58EBA",
"1.	c #F697C0",
"2.	c #F295BD",
"3.	c #EF97BD",
"4.	c #F696BF",
"5.	c #F590BC",
"6.	c #EF88B4",
"7.	c #E385A8",
"8.	c #9EA45E",
"9.	c #89BC32",
"0.	c #6FA70F",
"a.	c #6CA509",
"b.	c #6DA60A",
"c.	c #7DC16A",
"d.	c #85B92D",
"e.	c #72A914",
"f.	c #6DA60B",
"g.	c #73AA17",
"h.	c #8EC036",
"i.	c #77AE1D",
"j.	c #8BA351",
"k.	c #E9ABC4",
"l.	c #EBA2C0",
"m.	c #EA9ABC",
"n.	c #F194BC",
"o.	c #F5A3C6",
"p.	c #F1A5C6",
"q.	c #F4AACA",
"r.	c #F691BC",
"s.	c #EC85B1",
"t.	c #E683AB",
"u.	c #C5908B",
"v.	c #80A23A",
"w.	c #6CA50A",
"x.	c #81B528",
"y.	c #7EB326",
"z.	c #7AB021",
"A.	c #7BB022",
"B.	c #81B529",
"C.	c #8DBF35",
"D.	c #31C1AD",
"E.	c #8ABD33",
"F.	c #7DB225",
"G.	c #CC9DA3",
"H.	c #ECC3D4",
"I.	c #EDC6D7",
"J.	c #F2ADCA",
"K.	c #F5A4C7",
"L.	c #F695BF",
"M.	c #EBAFC8",
"N.	c #EBAEC7",
"O.	c #EBB4CB",
"P.	c #A8A077",
"Q.	c #85BA2C",
"R.	c #8DC034",
"S.	c #51C19D",
"T.	c #8DA355",
"U.	c #DF9BB7",
"V.	c #E4AAC3",
"W.	c #EABFD1",
"X.	c #DFBEC5",
"Y.	c #D0ABA7",
"Z.	c #F69CC2",
"`.	c #E796B0",
" +	c #DEB8C2",
".+	c #EBC0D3",
"++	c #E6AFC6",
"@+	c #C29E98",
"#+	c #80B627",
"$+	c #89BF2F",
"%+	c #87BE2C",
"&+	c #86BE2B",
"*+	c #87BE2B",
"=+	c #8CC032",
"-+	c #8EC136",
";+	c #58C299",
">+	c #8CC033",
",+	c #89BF30",
"'+	c #86BD2B",
")+	c #82B828",
"!+	c #6DA50B",
"~+	c #6EA50E",
"{+	c #7BA435",
"]+	c #6FA512",
"^+	c #E394A9",
"/+	c #F69EC4",
"(+	c #B39D79",
"_+	c #70A51A",
":+	c #9BA269",
"<+	c #BA9F8E",
"[+	c #71A914",
"}+	c #8ABF31",
"|+	c #57C194",
"1+	c #5CC39B",
"2+	c #8FC136",
"3+	c #87BB30",
"4+	c #72AA16",
"5+	c #8FA24F",
"6+	c #F293B9",
"7+	c #E095A6",
"8+	c #6FA514",
"9+	c #79AF1F",
"0+	c #8CBF34",
"a+	c #5DC49F",
"b+	c #4FBA9D",
"c+	c #97C647",
"d+	c #86B92E",
"e+	c #6FA710",
"f+	c #97A15A",
"g+	c #80A33A",
"h+	c #72A915",
"i+	c #29B5A1",
"j+	c #9BC459",
"k+	c #8BBD33",
"l+	c #84B82D",
"m+	c #7CB124",
"n+	c #7BB123",
"o+	c #7AB11F",
"p+	c #82B62A",
"q+	c #86BA2F",
"r+	c #08B9AD",
"s+	c #78A354",
"t+	c #A1CD57",
"u+	c #86BD2A",
"v+	c #A0CD57",
"w+	c #78A455",
"x+	c #06BBB0",
"y+	c #3F9B7B",
"z+	c #94B85B",
"A+	c #9ECC53",
"B+	c #88BE2D",
"C+	c #9FCC53",
"D+	c #A4D05B",
"E+	c #A8D462",
"F+	c #AED869",
"G+	c #B0DA6C",
"H+	c #B3DD70",
"I+	c #B6DF74",
"J+	c #BCE37A",
"K+	c #B8E077",
"L+	c #B6DD75",
"M+	c #B4DB75",
"N+	c #B5DB77",
"O+	c #96BA5D",
"P+	c #04C0B4",
"Q+	c #10A89E",
"R+	c #529055",
"S+	c #9ABE61",
"T+	c #80B427",
"U+	c #9ECB54",
"V+	c #92B758",
"W+	c #88AB50",
"X+	c #81A549",
"Y+	c #779C3C",
"Z+	c #6F9534",
"`+	c #668D24",
" @	c #5F8719",
".@	c #5F8718",
"+@	c #539053",
"@@	c #0CAFA5",
"#@	c #1CA699",
"$@	c #568D47",
"%@	c #8FB257",
"&@	c #B1D96F",
"*@	c #91C23A",
"=@	c #7CB123",
"-@	c #8DBE36",
";@	c #70A136",
">@	c #4D9461",
",@	c #4A956A",
"'@	c #48976D",
")@	c #469872",
"!@	c #429A76",
"~@	c #3F9B7C",
"{@	c #3B9D80",
"]@	c #389E84",
"^@	c #349F88",
"/@	c #1BA699",
"(@	c #07B9AE",
"_@	c #0EA89F",
":@	c #719636",
"<@	c #ADD172",
"[@	c #AAD565",
"}@	c #8FC138",
"|@	c #75B967",
"1@	c #27AA9A",
"2@	c #0CAEA4",
"3@	c #439976",
"4@	c #5D8824",
"5@	c #82A64A",
"6@	c #AFD474",
"7@	c #B1DB6D",
"8@	c #94C542",
"9@	c #8AC254",
"0@	c #2CAB99",
"a@	c #05BDB1",
"b@	c #0EA9A0",
"c@	c #24A494",
"d@	c #4D9362",
"e@	c #5F871B",
"f@	c #759A3B",
"g@	c #A7CA6E",
"h@	c #B5DC76",
"i@	c #97C646",
"j@	c #88BE2E",
"k@	c #96C646",
"l@	c #B5DC78",
"m@	c #A6CA70",
"n@	c #4EA686",
"o@	c #26A493",
"p@	c #49966B",
"q@	c #5C8A30",
"r@	c #7B9F42",
"s@	c #A2C46A",
"t@	c #B1D576",
"u@	c #B6DD76",
"v@	c #B4DD72",
"w@	c #A6D25F",
"x@	c #9CCB50",
"y@	c #90C139",
"z@	c #9BCA4E",
"A@	c #A7D360",
"B@	c #B4DD71",
"C@	c #B1D575",
"D@	c #A2C56A",
"E@	c #5C8930",
"F@	c #34A089",
"G@	c #07B8AD",
"H@	c #0EA99F",
"I@	c #14A79C",
"J@	c #369F86",
"K@	c #4B9566",
"L@	c #5A8B39",
"M@	c #6D932F",
"N@	c #89AC52",
"O@	c #9DBF65",
"P@	c #A8CA70",
"Q@	c #B0D377",
"R@	c #AED372",
"S@	c #AFD472",
"T@	c #9EC067",
"U@	c #89AD52",
"V@	c #5A8B38",
"W@	c #4B9465",
"X@	c #379E85",
"Y@	c #13A79C",
"Z@	c #06BBAF",
"`@	c #0DAAA1",
" #	c #25A494",
".#	c #3A9D82",
"+#	c #47976F",
"@#	c #50925B",
"##	c #578D45",
"$#	c #5D8823",
"%#	c #578D44",
"&#	c #50925A",
"*#	c #47976E",
"=#	c #25A493",
"-#	c #04BFB3",
";#	c #0BAFA5",
">#	c #0DA89F",
",#	c #14A79B",
"'#	c #21A596",
")#	c #25A392",
"!#	c #29A391",
"~#	c #2AA391",
"{#	c #26A392",
"]#	c #16A79A",
"^#	c #0DACA2",
"/#	c #05BCB1",
"(#	c #0CAEA5",
"_#	c #05BDB2",
":#	c #08B7AC",
"<#	c #04BFB4",
"[#	c #0AB2A8",
"}#	c #0AB1A7",
"|#	c #08B6AC",
"1#	c #0CADA4",
"2#	c #08B6AB",
"3#	c #08B7AD",
"4#	c #09B5AA",
"5#	c #09B4A9",
"                                                                                                                                ",
"                                                                                                                                ",
"                                                                                                                                ",
"                                                                                                                                ",
"                                                                                                                                ",
"                                                                                                                                ",
"                                                                                                                                ",
"                                                                                                                                ",
"                                                                                                                                ",
"                                                                                                                                ",
"                                                        . +                                                                     ",
"                                                      @ # $ %                                                                   ",
"                                        & * = - ;   > , ' ' )     ! ~ { ] ^                                                     ",
"                                        / ( _ ( : < [ ' ' ' } | 1 2 3 _ 4 5 6 7                                                 ",
"                                    7 8 9 0 a a b c ' ' ' ' ' d ( e a a e f g h i j 8 7                                         ",
"                                k l m g n o a a a p ' ' ' ' ' q a a a a r s g g g g g m l k                                     ",
"                            t u g g g v w ( a a a x ' ' ' ' ' y a a a a z A B g g g g g g g u t                                 ",
"                        C D g g g g E F F G b a a H ' ' ' ' ' I a a a a J K F L g g g g g g g g D C                             ",
"                      M N g g g g g O P F Q ( a a b ' ' ' ' ' R a a a _ S F F T g g g g g g g g g N M                           ",
"                    U g g g g g g g g V F F W X a a Y ' ' ' ' Z a a `  ...F +.@.g g g g g g g g g g g U                         ",
"                  #.g g g g g g g g g g $.F F %.3 e &.' ' ' *.a b 4 =.K F -.;.g g g g >.,.'.).).!.g g g #.                      ",
"                ~.{.g ].^./.(.g g g g _.:.<.[.F }.|.1.2.' 3.4.( 5.6.F F 7.8.9.g g g g ,.0.a.a.a.b.,.g g {.~.                    ",
"                c.g g d.e.f.g.g g h.i.a.a.a.j.k.l.m.n.o.p.q.r.s.F F t.u.v.a.w.x.g g g g 9.y.z.A.B.C.g g g c.                    ",
"              D.g g g g g E.d.g g F.a.a.a.w.G.H.I.I.J.K.a a L.M.N.O.P.a.a.a.a.a.Q.R.g g g g g g g g g g g g D.                  ",
"              S.g g g g g g g g g i.a.a.a.T.U.V.W.X.Y.Z.a e `. +.+++@+a.a.a.a.a.#+$+%+&+*+&+*+&+*+$+=+-+g g S.                  ",
"              ;+>+,+%+&+*+'+*+'+*+)+!+a.a.a.~+{+]+a.!+^+r /+(+_+:+<+<+a.a.a.a.[+C.g g g g g g g g R.}+%+*+&+|+                  ",
"              1+}+>+2+g g g g g g g 3+4+a.a.a.a.a.a.a.5+6+7+8+a.a.a.a.a.a.a.9+0+g g g g g g g g g g g g g g a+                  ",
"              b+c+g g g g g g g g g g g d+z.e+a.a.a.a.a.f+g+a.a.a.a.a.h+(.9.g g g g g g g g g g g g g g g c+b+                  ",
"              i+j+g g g g g g g g g g g g g g k+l+B.m+n+A.A.z.o+p+q+C.g g g g g g g g g g g g g g g g g g j+i+                  ",
"              r+s+t+g g g g g g g g g g g g g g g g g g g g g u+g g g g g g g g g g g g g g g g g g g g v+w+r+                  ",
"              x+y+z+A+g g g g g g g g g g g g g g g g g g g g B+R.g g g g g g g C+D+E+F+G+H+I+J+K+L+M+N+O+y+x+                  ",
"              P+Q+R+S+D+g g g g g g g g g g g g g T+l+g g g g g u+g g g g g g g U+V+W+X+Y+Z+`+ @.@ @ @ @+@Q+P+                  ",
"                @@#@$@%@&@*@g g g g g g g g g g g =@p+g g g g g *+-+g g g g g g g -@;@>@,@'@)@!@~@{@]@^@/@@@                    ",
"                (@_@/@R+:@<@[@}@g g g g g g g g g g g g g g g g -+%+g g g g g g g g g |@1@_@_@_@_@_@_@_@_@(@                    ",
"                  2@_@Q+3@4@5@6@7@8@g g g g g g g g g g g g g g g u+g g g g g g g g g g 9@0@_@_@_@_@_@_@2@                      ",
"                  a@b@_@_@c@d@e@f@g@h@F+i@g g g g g g g g g g g g R.j@g g g g g g k@F+l@m@n@_@_@_@_@_@b@a@                      ",
"                    (@_@_@_@_@o@p@q@ @r@s@t@u@v@w@x@y@g g g g g g g u+y@z@A@B@u@C@D@r@ @E@F@_@_@_@_@_@(@                        ",
"                      G@H@_@_@_@_@I@J@K@L@ @ @M@N@O@P@Q@<@R@S@S@R@<@Q@P@T@U@M@ @ @V@W@X@Y@_@_@_@_@H@G@                          ",
"                        Z@`@_@_@_@_@_@_@_@ #.#+#@###$#.@ @ @ @ @ @ @.@4@%#&#*#.#=#_@_@_@_@_@_@_@`@Z@                            ",
"                          -#;#_@_@_@_@_@_@_@_@_@_@_@>#,#'#)#!#~#{#'#]#_@_@_@_@_@_@_@_@_@_@_@_@;#-#                              ",
"                              (@^#_@_@_@_@_@_@_@_@_@_@_@_@_@_@_@_@_@_@_@_@_@_@_@_@_@_@_@_@^#(@                                  ",
"                                  (@2@_@_@_@_@_@_@_@_@_@_@_@_@_@_@_@_@_@_@_@_@_@_@_@_@2@(@                                      ",
"                                      /#^#_@_@_@_@_@_@_@_@_@_@_@_@_@_@_@_@_@_@_@_@(#_#                                          ",
"                                        P+2@_@_@_@_@_@_@_@_@_@_@_@_@_@_@_@_@_@_@:#                                              ",
"                                          <#[#b@_@_@_@_@_@_@_@_@_@_@_@_@_@_@}#a@                                                ",
"                                              -#|#2@_@_@_@_@_@_@_@_@_@1#2#-#                                                    ",
"                                                    P+x+3#4#5#4#:#Z@<#                                                          ",
"                                                                                                                                ",
"                                                                                                                                ",
"                                                                                                                                ",
"                                                                                                                                ",
"                                                                                                                                ",
"                                                                                                                                ",
"                                                                                                                                ",
"                                                                                                                                ",
"                                                                                                                                ",
"                                                                                                                                ",
"                                                                                                                                ",
"                                                                                                                                ",
"                                                                                                                                ",
"                                                                                                                                ",
"                                                                                                                                ",
"                                                                                                                                ",
"                                                                                                                                "};
