/* XPM */
static char * exit_xpm[] = {
"64 64 70 1",
" 	c #A59984",
".	c #929184",
"+	c #858C83",
"@	c #909084",
"#	c #7A8883",
"$	c #7D8984",
"%	c #A4998C",
"&	c #AB9D8E",
"*	c #A89B8D",
"=	c #B5A190",
"-	c #A79B8D",
";	c #A3998C",
">	c #929188",
",	c #7D8983",
"'	c #A2988B",
")	c #868C83",
"!	c #9E9684",
"~	c #919084",
"{	c #A39884",
"]	c #919184",
"^	c #959284",
"/	c #7C8983",
"(	c #A2988C",
"_	c #8C8E83",
":	c #A0978B",
"<	c #A3988C",
"[	c #A59A8C",
"}	c #A79A8C",
"|	c #A19784",
"1	c #989384",
"2	c #939184",
"3	c #9D968A",
"4	c #979384",
"5	c #888D83",
"6	c #969284",
"7	c #7B8883",
"8	c #A09784",
"9	c #8C8F83",
"0	c #A49984",
"a	c #9D9684",
"b	c #999484",
"c	c #9A9484",
"d	c #9F9684",
"e	c #808A83",
"f	c #929183",
"g	c #818A83",
"h	c #828B83",
"i	c #969384",
"j	c #838B83",
"k	c #AE9E8E",
"l	c #858C84",
"m	c #A29884",
"n	c #AD9D8E",
"o	c #848C84",
"p	c #979389",
"q	c #9C9584",
"r	c #999489",
"s	c #9B9584",
"t	c #999589",
"u	c #9A9589",
"v	c #9A9584",
"w	c #9A958A",
"x	c #949288",
"y	c #9D9584",
"z	c #B0A38D",
"A	c #B3A68F",
"B	c #B5A892",
"C	c #C0B39B",
"D	c #D8C9AF",
"E	c #D0C4AB",
"                                                                ",
"                                                                ",
"                                                                ",
"                                                                ",
"                .++++++++++++++++++++++++++++++.                ",
"               @################################@               ",
"              @#$%&&&&&&&&&&&&&&&&&&&&&&&&&&&&%$#@              ",
"             @#$*==============================*$#@             ",
"            @#$*================================*$#@            ",
"           @#$*==================================*$#@           ",
"          @#$-======;>>>>>>>>>>>>>>>>>>>>>>;======-$#@          ",
"         @#,-======')!!!!!!!!!!!!!!!!!!!!!!)'======-,#~         ",
"        ~#,-======'){                      {)'======-,#~        ",
"       ~#,-======'){                        {)'======-,#~       ",
"      ]#,-======'){                          {)'======-,#]      ",
"     ^#/-======(){                            {)(======-/#^     ",
"     _#:======<){                              {)<======:#_     ",
"     _#[=====;){                                {);=====[#_     ",
"     _#[====}){              |1221|              {)}====[#_     ",
"     _#[====34             !5######5!             43====[#_     ",
"     _#[====34            67########76            43====[#_     ",
"     _#[====34           4############4           43====[#_     ",
"     _#[====34          8/############/8          43====[#_     ",
"     _#[====34          9##############9          43====[#_     ",
"     _#[====34         0/##############/0         43====[#_     ",
"     _#[====34         a################a         43====[#_     ",
"     _#[====34         b################b         43====[#_     ",
"     _#[====34         c################c         43====[#_     ",
"     _#[====34         d################d         43====[#_     ",
"     _#[====34          e##############e          43====[#_     ",
"     _#[====34          f##############.          43====[#_     ",
"     _#[====34          {g############g{          43====[#_     ",
"     _#[====34           !,##########,!           43====[#_     ",
"     _#[====34            !h########h!            43====[#_     ",
"     _#[====3i             0^j####j^0             i3====[#_     ",
"     _#[====kl!               m!!m               !lk====[#_     ",
"     _#[=====no!                                !on=====[#_     ",
"     9#p======nl!                              !ln======p#9     ",
"     q/#r======no!                            !on======r#/q     ",
"      s/#r======no!                          !on======r#/s      ",
"       s/#t======no!                        !on======t#/s       ",
"        s/#u======no!                      !on======u#/s        ",
"         s/#u======noffffffffffffffffffffffon======u#/s         ",
"          s/#u======k;;;;;;;;;;;;;;;;;;;;;;k======u#/s          ",
"           s/#u==================================u#/s           ",
"            v/#w================================w#/s            ",
"             v/#w==============================w#/s             ",
"              c/#x3333333333333333333333333333x#/c              ",
"               c/##############################/c               ",
"                y2............................2y                ",
"                                                                ",
"                                                               z",
"AAAAAAAAAAAAAAAAAAAAAAAAAAAAAAAAAAAAAAAAAAAAAAAAAAAAAAAAAAAAABCD",
"EEEEEEEEEEEEEEEEEEEEEEEEEEEEEEEEEEEEEEEEEEEEEEEEEEEEEEEEEEEEEEEE",
"################################################################",
"################################################################",
"################################################################",
"################################################################",
"################################################################",
"################################################################",
"################################################################",
"################################################################",
"################################################################",
"################################################################"};
