/* XPM */
static char * exit_f_xpm[] = {
"64 64 92 2",
"  	c #A59984",
". 	c #939184",
"+ 	c #858C83",
"@ 	c #8F9083",
"# 	c #919184",
"$ 	c #7A8883",
"% 	c #8C8E83",
"& 	c #7C8983",
"* 	c #A4998C",
"= 	c #AC9D8E",
"- 	c #A79B8D",
"; 	c #808A84",
"> 	c #8B8E83",
", 	c #919084",
"' 	c #B5A190",
") 	c #7D8983",
"! 	c #909084",
"~ 	c #A49984",
"{ 	c #909187",
"] 	c #9F978B",
"^ 	c #A3998C",
"/ 	c #868C83",
"( 	c #9E9684",
"_ 	c #9F9684",
": 	c #898E83",
"< 	c #9C968A",
"[ 	c #7D8984",
"} 	c #A39884",
"| 	c #A89B8D",
"1 	c #A3988C",
"2 	c #B55088",
"3 	c #68386C",
"4 	c #949284",
"5 	c #A2988C",
"6 	c #181425",
"7 	c #9C958A",
"8 	c #8C8F83",
"9 	c #A0978B",
"0 	c #A2988B",
"a 	c #0099DB",
"b 	c #8A8E83",
"c 	c #9B958A",
"d 	c #9E968A",
"e 	c #969384",
"f 	c #431946",
"g 	c #9C9584",
"h 	c #959388",
"i 	c #EAD4AA",
"j 	c #E4A672",
"k 	c #A29884",
"l 	c #B86F50",
"m 	c #999484",
"n 	c #959284",
"o 	c #124E89",
"p 	c #909083",
"q 	c #848C83",
"r 	c #808A83",
"s 	c #A09784",
"t 	c #A19784",
"u 	c #838B83",
"v 	c #9E978A",
"w 	c #888D83",
"x 	c #7B8883",
"y 	c #B09F8F",
"z 	c #868D85",
"A 	c #9B9584",
"B 	c #848C84",
"C 	c #AD9D8E",
"D 	c #878D85",
"E 	c #8D8F83",
"F 	c #939288",
"G 	c #9A958A",
"H 	c #949288",
"I 	c #7B8983",
"J 	c #9A9484",
"K 	c #9D9684",
"L 	c #7E8983",
"M 	c #B4A190",
"N 	c #8E8F83",
"O 	c #8E9083",
"P 	c #B19F8F",
"Q 	c #AF9E8F",
"R 	c #8D8F87",
"S 	c #969389",
"T 	c #919187",
"U 	c #AFA28C",
"V 	c #BAAD96",
"W 	c #BBAE97",
"X 	c #C4B79E",
"Y 	c #D8C9AF",
"Z 	c #C9BEA8",
"` 	c #8F9B95",
"                                                                                                                                ",
"                                                                                                                                ",
"                                                                                                                                ",
"                                                                                                                                ",
"                                . + + + + + + + + + + + + + + + + + + + + + + + + + + + + + + @                                 ",
"                              # $ $ $ $ $ $ $ $ $ $ $ $ $ $ $ $ $ $ $ $ $ $ $ $ $ $ $ $ $ $ $ $ %                               ",
"                            # $ & * = = = = = = = = = = = = = = = = = = = = = = = = = = = = - ; $ >                             ",
"                          , $ & - ' ' ' ' ' ' ' ' ' ' ' ' ' ' ' ' ' ' ' ' ' ' ' ' ' ' ' ' ' ' = ; $ >                           ",
"                        , $ ) - ' ' ' ' ' ' ' ' ' ' ' ' ' ' ' ' ' ' ' ' ' ' ' ' ' ' ' ' ' ' ' ' = ; $ >                         ",
"                      ! $ ) - ' ' ' ' ' ' ' ' ' ' ' ' ' ' ' ' ' ' ' ' ' ' ' ' ' ' ' ' ' ' ' ' ' ' = ; $ > ~                     ",
"                    ! $ ) - ' ' ' ' ' ' * { { { { { { { { { { { { { { { { { { { { { { ] ' ' ' ' ' ' = ; $ > ~                   ",
"                  ! $ ) - ' ' ' ' ' ' ^ / ( _ _ _ _ _ _ _ _ _ _ _ _ _ _ _ _ _ _ _ _ _ : < ' ' ' ' ' ' = ; $ > ~                 ",
"                ! $ [ - ' ' ' ' ' ' ^ / }                                             ~ : < ' ' ' ' ' ' = ; $ > ~               ",
"              ! $ [ - ' ' ' ' ' ' ^ / }                                                 ~ : < ' ' ' ' ' ' = ; $ > ~             ",
"            ! $ [ | ' ' ' ' ' ' 1 / }                 2 2 2 2           3 3 3             ~ : < ' ' ' ' ' ' = ; $ > ~           ",
"          4 $ [ | ' ' ' ' ' ' 5 / }                 2 2 2 6 6 2       3 3 6 6 3             ~ : 7 ' ' ' ' ' ' = ; $ @           ",
"          8 $ 9 ' ' ' ' ' ' 0 / }                   a 2 6 6 6 6 2 2 a a 2 6 6 6               ~ b 7 ' ' ' ' ' ' | $ /           ",
"          8 $ * ' ' ' ' ' 0 / }                     a 2 6 6 6 6 2 2 2 2 2 2 6 6                 ~ b c ' ' ' ' ' = $ /           ",
"          8 $ * ' ' ' ' - / }                       2 2 2 6 6 2 2 2 2 2 2 2 3 3                   ~ b 9 ' ' ' ' = $ /           ",
"          8 $ * ' ' ' ' d e                         2 2 2 2 2 2 3 2 2 2 2 2 3 f 3                   g h ' ' ' ' = $ /           ",
"          8 $ * ' ' ' ' d e                       2 2 2 a 2 2 2 2 3 3 3 3 3 f 3 3                   g h ' ' ' ' = $ /           ",
"          8 $ * ' ' ' ' d e                     a 2 2 2 2 2 2 2 i i i i i i j j 3                   g h ' ' ' ' = $ /           ",
"          8 $ * ' ' ' ' d e                   2 2 2 2 2 2 2 2 i i i i i i i j j j                   g h ' ' ' ' = $ /           ",
"          8 $ * ' ' ' ' d e                 2 2 2 2 2 2 2 2 2 i i i i i i i j j j                   g h ' ' ' ' = $ /           ",
"          8 $ * ' ' ' ' d e                 2 a a 3 2 3 2 2 2 i i i i i i i j j k                   g h ' ' ' ' = $ /           ",
"          8 $ * ' ' ' ' d e               2 2 a a 2 3 3 2 2 2 j j j j j j j l 3 m                   g h ' ' ' ' = $ /           ",
"          8 $ * ' ' ' ' d e               2 2 2 2 2 2 3 2 a a j j j j j j j 3 3 n                   g h ' ' ' ' = $ /           ",
"          8 $ * ' ' ' ' d e               a 2 2 2 2 2 3 2 a a j j j j j j j o o e                   g h ' ' ' ' = $ /           ",
"          8 $ * ' ' ' ' d e               2 2 2 3 3 3 3 2 2 2 2 j j j j j j o o 3                   g h ' ' ' ' = $ /           ",
"          8 $ * ' ' ' ' d e                 2 i 2 i 3 o 3 2 i 2 i j j j j 3 3 j 3 j                 g h ' ' ' ' = $ /           ",
"          8 $ * ' ' ' ' d e                     n $ $ $ $ $ $ $ $ $ $ $ $ $ $ p                     g h ' ' ' ' = $ /           ",
"          8 $ * ' ' ' ' d e                     ~ q $ $ $ $ $ $ $ $ $ $ $ $ r }                     g h ' ' ' ' = $ /           ",
"          8 $ * ' ' ' ' d e                       s r $ $ $ $ $ $ $ $ $ $ ) (                       g h ' ' ' ' = $ /           ",
"          8 $ * ' ' ' ' d e                         t / $ $ $ $ $ $ $ $ u _                         g h ' ' ' ' = $ /           ",
"          8 $ * ' ' ' ' v 4                             m w & $ $ x / e ~                           m h ' ' ' ' = $ /           ",
"          8 $ * ' ' ' ' y z A                               ~ t t ~                               ( B C ' ' ' ' = $ /           ",
"          8 $ * ' ' ' ' ' y D A                                                                 ( B = ' ' ' ' ' = $ /           ",
"          E $ F ' ' ' ' ' ' y D A                                                             ( B = ' ' ' ' ' ' G $ /           ",
"          ( ) $ H ' ' ' ' ' ' y D A                                                         ( B = ' ' ' ' ' ' c $ I J           ",
"            K ) $ H ' ' ' ' ' ' y D A                                                     ( B C ' ' ' ' ' ' c $ I J             ",
"              K L $ H M ' ' ' ' ' y D A                                                 ( B C ' ' ' ' ' ' c $ I J               ",
"                ( L $ H M ' ' ' ' ' y D J                                             ( B C ' ' ' ' ' ' c $ & J                 ",
"                  ( L $ F M ' ' ' ' ' y D N O O O O O O O O O O O O O O O O O O O O O B C ' ' ' ' ' ' c $ & J                   ",
"                    ( L $ F M ' ' ' ' ' P - - - - - - - - - - - - - - - - - - - - - - Q ' ' ' ' ' ' c $ & J                     ",
"                      ( L $ F M ' ' ' ' ' ' ' ' ' ' ' ' ' ' ' ' ' ' ' ' ' ' ' ' ' ' ' ' ' ' ' ' ' c $ & J                       ",
"                        ( L $ F M ' ' ' ' ' ' ' ' ' ' ' ' ' ' ' ' ' ' ' ' ' ' ' ' ' ' ' ' ' ' ' G $ & J                         ",
"                          ( L $ F M ' ' ' ' ' ' ' ' ' ' ' ' ' ' ' ' ' ' ' ' ' ' ' ' ' ' ' ' ' G $ & J                           ",
"                            ( L $ R S S S S S S S S S S S S S S S S S S S S S S S S S S S S T $ & J                             ",
"                              ( L $ $ $ $ $ $ $ $ $ $ $ $ $ $ $ $ $ $ $ $ $ $ $ $ $ $ $ $ $ $ & J                               ",
"                                s e e e e e e e e e e e e e e e e e e e e e e e e e e e e e e (                                 ",
"                                                                                                                                ",
"                                                                                                                              U ",
"V V V V V V V V V V V V V V V V V V V V V V V V V V V V V V V V V V V V V V V V V V V V V V V V V V V V V V V V V V V V V W X Y ",
"Z Z Z Z Z Z Z Z Z Z Z Z Z Z Z Z Z Z Z Z Z Z Z Z Z Z Z Z Z Z Z Z Z Z Z Z Z Z Z Z Z Z Z Z Z Z Z Z Z Z Z Z Z Z Z Z Z Z Z Z Z Z Z Z ",
"$ $ $ $ $ $ $ $ $ $ $ $ $ $ $ $ $ $ $ $ $ $ $ $ $ $ $ $ $ $ $ $ $ $ $ $ $ $ $ $ $ $ $ $ $ $ $ $ $ $ $ $ $ $ $ $ $ $ $ $ $ $ $ $ ",
"$ $ $ $ $ $ $ $ $ $ $ $ $ $ $ $ $ $ $ $ $ $ $ $ $ $ $ $ $ $ $ $ $ $ $ $ $ $ $ $ $ $ $ $ $ $ $ $ $ $ $ $ $ $ $ $ $ $ $ $ $ $ $ $ ",
"$ $ $ $ $ $ $ $ $ $ $ $ $ $ $ $ $ $ $ $ $ $ $ $ $ $ $ $ $ $ $ $ $ $ $ $ $ $ $ $ $ $ $ $ $ $ $ $ $ $ $ $ $ $ $ $ $ $ $ $ $ $ $ $ ",
"$ $ $ $ $ $ $ $ $ $ $ $ $ $ $ $ $ $ $ $ $ $ $ $ $ $ $ $ $ $ $ $ $ $ $ $ $ $ $ $ $ $ $ $ $ $ $ $ $ $ $ $ $ $ $ $ $ $ $ $ $ $ $ $ ",
"$ $ $ $ $ $ $ $ $ $ $ $ $ $ $ $ $ $ $ $ $ $ $ $ $ $ $ $ $ $ $ $ $ $ $ $ $ $ $ $ $ $ $ $ $ $ $ $ $ $ $ $ $ $ $ $ $ $ $ $ $ $ $ $ ",
"$ $ $ $ $ $ $ $ $ $ $ $ $ $ $ $ $ $ $ $ $ $ $ $ $ $ $ $ $ $ $ $ $ $ $ $ $ $ $ $ $ $ $ $ $ $ $ $ $ $ $ $ $ $ $ $ $ $ $ $ $ $ $ $ ",
"$ $ $ $ $ $ $ $ $ $ $ $ $ $ $ $ $ $ $ $ $ $ $ $ $ $ $ $ $ $ $ $ $ $ $ $ $ $ $ $ $ $ $ $ $ $ $ $ $ $ $ $ $ $ $ $ $ $ $ $ $ $ $ $ ",
"$ $ $ $ $ $ $ $ $ $ $ $ $ $ $ $ $ $ $ $ $ $ $ $ $ $ $ $ $ $ $ $ $ $ $ $ $ $ $ $ $ $ $ $ $ $ $ $ $ $ $ $ $ $ $ $ $ $ $ $ $ $ $ $ ",
"$ $ $ $ $ $ $ $ $ $ $ $ $ $ $ $ $ $ $ $ $ $ $ $ $ $ $ $ $ $ $ $ $ $ $ $ $ $ $ $ $ $ $ $ $ $ $ $ $ $ $ $ $ $ $ $ $ $ $ $ $ $ $ $ ",
"` ` ` ` ` ` ` ` ` ` ` ` ` ` ` ` ` ` ` ` ` ` ` ` ` ` ` ` ` ` ` ` ` ` ` ` ` ` ` ` ` ` ` ` ` ` ` ` ` ` ` ` ` ` ` ` ` ` ` ` ` ` ` ` "};
