/* XPM */
static char * player_f_xpm[] = {
"64 64 269 2",
"  	c #0F9E95",
". 	c #109E95",
"+ 	c #149F96",
"@ 	c #1A9F97",
"# 	c #1CA097",
"$ 	c #1EA198",
"% 	c #199F96",
"& 	c #159F96",
"* 	c #1BA097",
"= 	c #179F96",
"- 	c #32A59C",
"; 	c #69B9B3",
"> 	c #87C9C4",
", 	c #99D5D1",
"' 	c #A3DCD8",
") 	c #A1DBD7",
"! 	c #97D5D1",
"~ 	c #92D0CC",
"{ 	c #8DCCC7",
"] 	c #86C9C4",
"^ 	c #8BCCC7",
"/ 	c #8CCEC9",
"( 	c #93D2CD",
"_ 	c #9AD6D2",
": 	c #6CBAB4",
"< 	c #2FA49C",
"[ 	c #139F96",
"} 	c #26A299",
"| 	c #3DA9A1",
"1 	c #3FA9A2",
"2 	c #39A8A0",
"3 	c #2AA39A",
"4 	c #119E95",
"5 	c #3BA79F",
"6 	c #80C5C0",
"7 	c #99D6D1",
"8 	c #8ECFCA",
"9 	c #89CAC5",
"0 	c #8CCCC8",
"a 	c #96D4CF",
"b 	c #9CD6D2",
"c 	c #7CC3BD",
"d 	c #36A69D",
"e 	c #2FA59C",
"f 	c #62B8B1",
"g 	c #78C2BC",
"h 	c #77C0BA",
"i 	c #69BAB3",
"j 	c #53AFA8",
"k 	c #2BA39B",
"l 	c #0D9E95",
"m 	c #1DA097",
"n 	c #5BB3AC",
"o 	c #AAE0DD",
"p 	c #A8DFDB",
"q 	c #98D4D0",
"r 	c #7BC3BD",
"s 	c #7CC3BE",
"t 	c #83C7C2",
"u 	c #87CBC6",
"v 	c #89CCC7",
"w 	c #73BFB9",
"x 	c #50AEA7",
"y 	c #22A299",
"z 	c #129F96",
"A 	c #6FBCB6",
"B 	c #88CBC6",
"C 	c #7FC5C0",
"D 	c #7BC3BE",
"E 	c #8ACBC6",
"F 	c #A0D9D5",
"G 	c #78C1BB",
"H 	c #20A198",
"I 	c #70BDB7",
"J 	c #76C0BB",
"K 	c #44ABA3",
"L 	c #48ABA4",
"M 	c #6EBBB5",
"N 	c #75BFB9",
"O 	c #71BDB7",
"P 	c #5DB4AD",
"Q 	c #3BA8A0",
"R 	c #25A199",
"S 	c #0E9E95",
"T 	c #33A59D",
"U 	c #62B6AF",
"V 	c #63B6B0",
"W 	c #1EA097",
"X 	c #0F9F96",
"Y 	c #B55088",
"Z 	c #68386C",
"` 	c #0FAEA4",
" .	c #181425",
"..	c #0099DB",
"+.	c #431946",
"@.	c #EAD4AA",
"#.	c #E4A672",
"$.	c #B86F50",
"%.	c #50B490",
"&.	c #78BB6A",
"*.	c #4AB393",
"=.	c #03C0B4",
"-.	c #3CC0A8",
";.	c #7EC168",
">.	c #8FC137",
",.	c #124E89",
"'.	c #7AC170",
").	c #34C0AB",
"!.	c #03C1B5",
"~.	c #54C19B",
"{.	c #8CC142",
"].	c #8BC147",
"^.	c #4BC1A1",
"/.	c #8EC13C",
"(.	c #8ABD32",
"_.	c #84B82C",
":.	c #8DC036",
"<.	c #84B72C",
"[.	c #3FC1A7",
"}.	c #07C1B5",
"|.	c #85C15A",
"1.	c #7DB225",
"2.	c #70A813",
"3.	c #82B62A",
"4.	c #88BB30",
"5.	c #7BB022",
"6.	c #7BB021",
"7.	c #86B92E",
"8.	c #7DB224",
"9.	c #7BB123",
"0.	c #80B528",
"a.	c #7FC167",
"b.	c #40C1A7",
"c.	c #8EC036",
"d.	c #8EC136",
"e.	c #7DB223",
"f.	c #88BE2D",
"g.	c #87BE2C",
"h.	c #88BE2E",
"i.	c #8ABF30",
"j.	c #8CC033",
"k.	c #8FC136",
"l.	c #2DC1AE",
"m.	c #4BC09D",
"n.	c #89BF2F",
"o.	c #83B72B",
"p.	c #82B629",
"q.	c #8EC035",
"r.	c #8ABF31",
"s.	c #46C2A4",
"t.	c #4DC0A4",
"u.	c #90C23A",
"v.	c #7FB326",
"w.	c #7EB325",
"x.	c #87BA2F",
"y.	c #93C440",
"z.	c #3EBEA7",
"A.	c #20B8A7",
"B.	c #97C24F",
"C.	c #8DBF35",
"D.	c #8ABC32",
"E.	c #86BA2D",
"F.	c #83B92A",
"G.	c #89BC31",
"H.	c #91BD4F",
"I.	c #14BBAD",
"J.	c #06BCB0",
"K.	c #6DA566",
"L.	c #9CC951",
"M.	c #87BE2B",
"N.	c #90C239",
"O.	c #A2CF58",
"P.	c #A4D15C",
"Q.	c #AAD564",
"R.	c #ADD768",
"S.	c #ABD566",
"T.	c #A5CF61",
"U.	c #A4CD60",
"V.	c #A3CB61",
"W.	c #62A26D",
"X.	c #05BEB2",
"Y.	c #23A596",
"Z.	c #7AA553",
"`.	c #A2CD5D",
" +	c #78AE1E",
".+	c #8CBF35",
"++	c #8FBD41",
"@+	c #6B9429",
"#+	c #608923",
"$+	c #5B8A2C",
"%+	c #578D42",
"&+	c #568E4C",
"*+	c #568E4E",
"=+	c #509158",
"-+	c #1CA89C",
";+	c #0AB2A8",
">+	c #26A494",
",+	c #64964E",
"'+	c #9DC360",
")+	c #A0CD57",
"!+	c #89BF46",
"~+	c #54B187",
"{+	c #0EA89F",
"]+	c #09B4AA",
"^+	c #04BFB3",
"/+	c #0DAAA1",
"(+	c #15A79C",
"_+	c #459873",
":+	c #749C44",
"<+	c #9CC15F",
"[+	c #A8D264",
"}+	c #99C84B",
"|+	c #8DC035",
"1+	c #9CCA4E",
"2+	c #A6D166",
"3+	c #47AB90",
"4+	c #0DABA2",
"5+	c #04C0B4",
"6+	c #06BBB0",
"7+	c #0EA9A0",
"8+	c #1CA699",
"9+	c #429A77",
"0+	c #578E47",
"a+	c #84A84C",
"b+	c #9ABF60",
"c+	c #A0C760",
"d+	c #A5CE62",
"e+	c #ACD666",
"f+	c #A4D05B",
"g+	c #A0CD55",
"h+	c #9FCD54",
"i+	c #9FCF57",
"j+	c #ACD667",
"k+	c #A0C761",
"l+	c #9ABE60",
"m+	c #80A447",
"n+	c #558E4C",
"o+	c #2BA28F",
"p+	c #0DAAA0",
"q+	c #05BDB1",
"r+	c #24A494",
"s+	c #3D9C7E",
"t+	c #4B9568",
"u+	c #548F50",
"v+	c #5B8A31",
"w+	c #6A912C",
"x+	c #80A449",
"y+	c #82A64B",
"z+	c #7FA347",
"A+	c #6A912B",
"B+	c #5B8B33",
"C+	c #548F51",
"D+	c #4A966A",
"E+	c #3B9D80",
"F+	c #21A596",
"G+	c #0AB1A7",
"H+	c #1AA698",
"I+	c #23A495",
"J+	c #19A698",
"K+	c #0AB3A9",
"L+	c #0AB2A7",
"M+	c #0AB3A8",
"N+	c #05BDB2",
"O+	c #07B9AE",
"P+	c #0CADA3",
"Q+	c #0CADA4",
"R+	c #07BAAF",
"S+	c #04BEB3",
"T+	c #05BCB1",
"                                                                                                                                ",
"                                                                                                                                ",
"                . + @ # $ % &                                                                             + * # =               ",
"      - ; > , ' ) ! ~ { ] ^ / ( _ ^ : <                   [ } | 1 +               . 2 3 4           5 6 7 8 9 0 a ' b c d       ",
"  e f g h i j k l               m n ^ o p q ^ 6 r s t u v ] w x y &               z k A B B C D E F o G H         & x I J K     ",
"                                      z L M N O P Q R S                                   . T U N V W                           ",
"                                                                                                                                ",
"                                                                                                                                ",
"                                                                                                                                ",
"                                                                                                                                ",
"                                                                                                                                ",
"                                                                                                                                ",
"                                                                                                                                ",
"                                                                                                                                ",
"X X X X X X X X X X X X X X X X X X X X X X X X X X X Y Y Y Y X X X X X Z Z Z X X X X X X X X X X X X X X X X X X X X X X X X X ",
"` ` ` ` ` ` ` ` ` ` ` ` ` ` ` ` ` ` ` ` ` ` ` ` ` ` Y Y Y  . .Y ` ` ` Z Z  . .Z ` ` ` ` ` ` ` ` ` ` ` ` ` ` ` ` ` ` ` ` ` ` ` ` ",
"` ` ` ` ` ` ` ` ` ` ` ` ` ` ` ` ` ` ` ` ` ` ` ` ` ` ..Y  . . . .Y Y ....Y  . . .` ` ` ` ` ` ` ` ` ` ` ` ` ` ` ` ` ` ` ` ` ` ` ` ",
"` ` ` ` ` ` ` ` ` ` ` ` ` ` ` ` ` ` ` ` ` ` ` ` ` ` ..Y  . . . .Y Y Y Y Y Y  . .` ` ` ` ` ` ` ` ` ` ` ` ` ` ` ` ` ` ` ` ` ` ` ` ",
"` ` ` ` ` ` ` ` ` ` ` ` ` ` ` ` ` ` ` ` ` ` ` ` ` ` Y Y Y  . .Y Y Y Y Y Y Y Z Z ` ` ` ` ` ` ` ` ` ` ` ` ` ` ` ` ` ` ` ` ` ` ` ` ",
"` ` ` ` ` ` ` ` ` ` ` ` ` ` ` ` ` ` ` ` ` ` ` ` ` ` Y Y Y Y Y Y Z Y Y Y Y Y Z +.Z ` ` ` ` ` ` ` ` ` ` ` ` ` ` ` ` ` ` ` ` ` ` ` ",
"` ` ` ` ` ` ` ` ` ` ` ` ` ` ` ` ` ` ` ` ` ` ` ` ` Y Y Y ..Y Y Y Y Z Z Z Z Z +.Z Z ` ` ` ` ` ` ` ` ` ` ` ` ` ` ` ` ` ` ` ` ` ` ` ",
"` ` ` ` ` ` ` ` ` ` ` ` ` ` ` ` ` ` ` ` ` ` ` ` ..Y Y Y Y Y Y Y @.@.@.@.@.@.#.#.Z ` ` ` ` ` ` ` ` ` ` ` ` ` ` ` ` ` ` ` ` ` ` ` ",
"` ` ` ` ` ` ` ` ` ` ` ` ` ` ` ` ` ` ` ` ` ` ` Y Y Y Y Y Y Y Y @.@.@.@.@.@.@.#.#.#.` ` ` ` ` ` ` ` ` ` ` ` ` ` ` ` ` ` ` ` ` ` ` ",
"` ` ` ` ` ` ` ` ` ` ` ` ` ` ` ` ` ` ` ` ` ` Y Y Y Y Y Y Y Y Y @.@.@.@.@.@.@.#.#.#.` ` ` ` ` ` ` ` ` ` ` ` ` ` ` ` ` ` ` ` ` ` ` ",
"` ` ` ` ` ` ` ` ` ` ` ` ` ` ` ` ` ` ` ` ` ` Y ....Z Y Z Y Y Y @.@.@.@.@.@.@.#.#.` ` ` ` ` ` ` ` ` ` ` ` ` ` ` ` ` ` ` ` ` ` ` ` ",
"` ` ` ` ` ` ` ` ` ` ` ` ` ` ` ` ` ` ` ` ` Y Y ....Y Z Z Y Y Y #.#.#.#.#.#.#.$.Z ` ` ` ` ` ` ` ` ` ` ` ` ` ` ` ` ` ` ` ` ` ` ` ` ",
"` ` ` ` ` ` ` ` ` ` ` ` ` ` ` ` ` ` ` ` %.Y Y Y Y Y Y Z Y ....#.#.#.#.#.#.#.Z Z &.*.` ` ` ` ` ` ` ` ` ` ` ` ` ` ` ` ` ` ` ` ` ` ",
"=.=.=.=.=.=.=.=.=.=.=.=.=.=.=.=.=.=.-.;.>...Y Y Y Y Y Z Y ....#.#.#.#.#.#.#.,.,.>.>.'.).=.=.=.=.=.=.=.=.=.=.=.=.=.=.=.=.=.=.=.=.",
"!.!.!.!.!.!.!.!.!.!.!.!.!.!.!.!.!.~.{.>.>.Y Y Y Z Z Z Z Y Y Y Y #.#.#.#.#.#.,.,.Z >.>.].^.!.!.!.!.!.!.!.!.!.!.!.!.!.!.!.!.!.!.!.",
"!.!.!.!.!.!.!.!.!.!.!.!.!.!.!.!.^./.(._.:.>.Y @.Y @.Z ,.Z Y @.Y @.#.#.#.#.Z Z #.Z #.<.>.{.[.!.!.!.!.!.!.!.!.!.!.!.!.!.!.!.!.!.!.",
"!.!.!.!.!.!.!.!.!.!.!.!.!.!.!.}.|.>.1.2.3.>.>.>.4.5.6.6.6.6.6.6.6.6.6.6.7.>.>.(.8.9.0.>.>.a.!.!.!.!.!.!.!.!.!.!.!.!.!.!.!.!.!.!.",
"!.!.!.!.!.!.!.!.!.!.!.!.!.!.!.b.>.>.>.c.c.>.>.d.e.6.6.6.6.6.6.6.6.6.6.6.6.f.g.h.g.i.j.k.>.>.l.!.!.!.!.!.!.!.!.!.!.!.!.!.!.!.!.!.",
"!.!.!.!.!.!.!.!.!.!.!.!.!.!.!.m.g.f.g.h.g.h.g.n.o.6.6.6.6.6.6.6.6.6.6.6.p.>.>.>.>.q.r.h.g.f.s.!.!.!.!.!.!.!.!.!.!.!.!.!.!.!.!.!.",
"!.!.!.!.!.!.!.!.!.!.!.!.!.!.!.t.u.>.>.>.>.>.>.>.>.4.v.6.6.6.6.6.6.6.w.x.>.>.>.>.>.>.>.>.>.y.z.!.!.!.!.!.!.!.!.!.!.!.!.!.!.!.!.!.",
"!.!.!.!.!.!.!.!.!.!.!.!.!.!.!.A.B.>.>.>.>.>.>.>.>.>.>.C.D.x.E.F.G.C.>.>.>.>.>.>.>.>.>.>.>.H.I.!.!.!.!.!.!.!.!.!.!.!.!.!.!.!.!.!.",
"!.!.!.!.!.!.!.!.!.!.!.!.!.!.!.J.K.L.>.>.>.>.>.>.>.>.>.>.>.>.>.M.>.>.>.>.N.O.P.Q.R.S.T.U.V.W.X.!.!.!.!.!.!.!.!.!.!.!.!.!.!.!.!.!.",
"!.!.!.!.!.!.!.!.!.!.!.!.!.!.!.=.Y.Z.`.>.>.>.>.>.>.>.>. +.+>.>.i.j.>.>.>.>.++@+#+$+%+&+*+=+-+!.!.!.!.!.!.!.!.!.!.!.!.!.!.!.!.!.!.",
"!.!.!.!.!.!.!.!.!.!.!.!.!.!.!.!.;+>+,+'+)+>.>.>.>.>.>.>.>.>.>.>.M.>.>.>.>.>.!+~+{+{+{+{+{+]+!.!.!.!.!.!.!.!.!.!.!.!.!.!.!.!.!.!.",
"!.!.!.!.!.!.!.!.!.!.!.!.!.!.!.!.^+/+(+_+:+<+[+}+>.>.>.>.>.>.>.>.h.|+>.>.>.>.1+2+3+{+{+{+4+5+!.!.!.!.!.!.!.!.!.!.!.!.!.!.!.!.!.!.",
"!.!.!.!.!.!.!.!.!.!.!.!.!.!.!.!.!.6+7+{+8+9+0+a+b+c+d+e+f+g+h+h+g+i+j+d+k+l+m+n+o+{+{+p+q+!.!.!.!.!.!.!.!.!.!.!.!.!.!.!.!.!.!.!.",
"!.!.!.!.!.!.!.!.!.!.!.!.!.!.!.!.!.!.J./+{+{+{+r+s+t+u+v+w+x+y+y+z+A+B+C+D+E+F+{+{+{+4+q+!.!.!.!.!.!.!.!.!.!.!.!.!.!.!.!.!.!.!.!.",
"!.!.!.!.!.!.!.!.!.!.!.!.!.!.!.!.!.!.!.^+G+{+{+{+{+{+{+{+{+H+I+I+J+{+{+{+{+{+{+{+{+K+5+!.!.!.!.!.!.!.!.!.!.!.!.!.!.!.!.!.!.!.!.!.",
"!.!.!.!.!.!.!.!.!.!.!.!.!.!.!.!.!.!.!.!.!.q+L+7+{+{+{+{+{+{+{+{+{+{+{+{+{+{+7+M+N+!.!.!.!.!.!.!.!.!.!.!.!.!.!.!.!.!.!.!.!.!.!.!.",
"!.!.!.!.!.!.!.!.!.!.!.!.!.!.!.!.!.!.!.!.!.!.!.5+O+;+P+{+{+{+{+{+{+{+7+Q+K+R+=.!.!.!.!.!.!.!.!.!.!.!.!.!.!.!.!.!.!.!.!.!.!.!.!.!.",
"!.!.!.!.!.!.!.!.!.!.!.!.!.!.!.!.!.!.!.!.!.!.!.!.!.!.!.!.S+q+T+T+q+S+!.!.!.!.!.!.!.!.!.!.!.!.!.!.!.!.!.!.!.!.!.!.!.!.!.!.!.!.!.!.",
"!.!.!.!.!.!.!.!.!.!.!.!.!.!.!.!.!.!.!.!.!.!.!.!.!.!.!.!.!.!.!.!.!.!.!.!.!.!.!.!.!.!.!.!.!.!.!.!.!.!.!.!.!.!.!.!.!.!.!.!.!.!.!.!.",
"!.!.!.!.!.!.!.!.!.!.!.!.!.!.!.!.!.!.!.!.!.!.!.!.!.!.!.!.!.!.!.!.!.!.!.!.!.!.!.!.!.!.!.!.!.!.!.!.!.!.!.!.!.!.!.!.!.!.!.!.!.!.!.!.",
"!.!.!.!.!.!.!.!.!.!.!.!.!.!.!.!.!.!.!.!.!.!.!.!.!.!.!.!.!.!.!.!.!.!.!.!.!.!.!.!.!.!.!.!.!.!.!.!.!.!.!.!.!.!.!.!.!.!.!.!.!.!.!.!.",
"!.!.!.!.!.!.!.!.!.!.!.!.!.!.!.!.!.!.!.!.!.!.!.!.!.!.!.!.!.!.!.!.!.!.!.!.!.!.!.!.!.!.!.!.!.!.!.!.!.!.!.!.!.!.!.!.!.!.!.!.!.!.!.!.",
"!.!.!.!.!.!.!.!.!.!.!.!.!.!.!.!.!.!.!.!.!.!.!.!.!.!.!.!.!.!.!.!.!.!.!.!.!.!.!.!.!.!.!.!.!.!.!.!.!.!.!.!.!.!.!.!.!.!.!.!.!.!.!.!.",
"!.!.!.!.!.!.!.!.!.!.!.!.!.!.!.!.!.!.!.!.!.!.!.!.!.!.!.!.!.!.!.!.!.!.!.!.!.!.!.!.!.!.!.!.!.!.!.!.!.!.!.!.!.!.!.!.!.!.!.!.!.!.!.!.",
"!.!.!.!.!.!.!.!.!.!.!.!.!.!.!.!.!.!.!.!.!.!.!.!.!.!.!.!.!.!.!.!.!.!.!.!.!.!.!.!.!.!.!.!.!.!.!.!.!.!.!.!.!.!.!.!.!.!.!.!.!.!.!.!.",
"!.!.!.!.!.!.!.!.!.!.!.!.!.!.!.!.!.!.!.!.!.!.!.!.!.!.!.!.!.!.!.!.!.!.!.!.!.!.!.!.!.!.!.!.!.!.!.!.!.!.!.!.!.!.!.!.!.!.!.!.!.!.!.!.",
"!.!.!.!.!.!.!.!.!.!.!.!.!.!.!.!.!.!.!.!.!.!.!.!.!.!.!.!.!.!.!.!.!.!.!.!.!.!.!.!.!.!.!.!.!.!.!.!.!.!.!.!.!.!.!.!.!.!.!.!.!.!.!.!.",
"!.!.!.!.!.!.!.!.!.!.!.!.!.!.!.!.!.!.!.!.!.!.!.!.!.!.!.!.!.!.!.!.!.!.!.!.!.!.!.!.!.!.!.!.!.!.!.!.!.!.!.!.!.!.!.!.!.!.!.!.!.!.!.!.",
"!.!.!.!.!.!.!.!.!.!.!.!.!.!.!.!.!.!.!.!.!.!.!.!.!.!.!.!.!.!.!.!.!.!.!.!.!.!.!.!.!.!.!.!.!.!.!.!.!.!.!.!.!.!.!.!.!.!.!.!.!.!.!.!.",
"!.!.!.!.!.!.!.!.!.!.!.!.!.!.!.!.!.!.!.!.!.!.!.!.!.!.!.!.!.!.!.!.!.!.!.!.!.!.!.!.!.!.!.!.!.!.!.!.!.!.!.!.!.!.!.!.!.!.!.!.!.!.!.!.",
"!.!.!.!.!.!.!.!.!.!.!.!.!.!.!.!.!.!.!.!.!.!.!.!.!.!.!.!.!.!.!.!.!.!.!.!.!.!.!.!.!.!.!.!.!.!.!.!.!.!.!.!.!.!.!.!.!.!.!.!.!.!.!.!.",
"!.!.!.!.!.!.!.!.!.!.!.!.!.!.!.!.!.!.!.!.!.!.!.!.!.!.!.!.!.!.!.!.!.!.!.!.!.!.!.!.!.!.!.!.!.!.!.!.!.!.!.!.!.!.!.!.!.!.!.!.!.!.!.!.",
"!.!.!.!.!.!.!.!.!.!.!.!.!.!.!.!.!.!.!.!.!.!.!.!.!.!.!.!.!.!.!.!.!.!.!.!.!.!.!.!.!.!.!.!.!.!.!.!.!.!.!.!.!.!.!.!.!.!.!.!.!.!.!.!.",
"!.!.!.!.!.!.!.!.!.!.!.!.!.!.!.!.!.!.!.!.!.!.!.!.!.!.!.!.!.!.!.!.!.!.!.!.!.!.!.!.!.!.!.!.!.!.!.!.!.!.!.!.!.!.!.!.!.!.!.!.!.!.!.!.",
"!.!.!.!.!.!.!.!.!.!.!.!.!.!.!.!.!.!.!.!.!.!.!.!.!.!.!.!.!.!.!.!.!.!.!.!.!.!.!.!.!.!.!.!.!.!.!.!.!.!.!.!.!.!.!.!.!.!.!.!.!.!.!.!.",
"!.!.!.!.!.!.!.!.!.!.!.!.!.!.!.!.!.!.!.!.!.!.!.!.!.!.!.!.!.!.!.!.!.!.!.!.!.!.!.!.!.!.!.!.!.!.!.!.!.!.!.!.!.!.!.!.!.!.!.!.!.!.!.!.",
"!.!.!.!.!.!.!.!.!.!.!.!.!.!.!.!.!.!.!.!.!.!.!.!.!.!.!.!.!.!.!.!.!.!.!.!.!.!.!.!.!.!.!.!.!.!.!.!.!.!.!.!.!.!.!.!.!.!.!.!.!.!.!.!."};
