/* XPM */
static char * player_xpm[] = {
"64 64 208 2",
"  	c #03C1B5",
". 	c #B55088",
"+ 	c #68386C",
"@ 	c #181425",
"# 	c #0099DB",
"$ 	c #431946",
"% 	c #EAD4AA",
"& 	c #E4A672",
"* 	c #3DC1A8",
"= 	c #6DC183",
"- 	c #6AC187",
"; 	c #37C1AA",
"> 	c #26C1B0",
", 	c #6FC180",
"' 	c #8CC142",
") 	c #B86F50",
"! 	c #8FC137",
"~ 	c #8BC146",
"{ 	c #6AC186",
"] 	c #1FC1B1",
"^ 	c #3EC1A7",
"/ 	c #84C15C",
"( 	c #81C164",
"_ 	c #35C1AB",
": 	c #34C1AC",
"< 	c #87C154",
"[ 	c #8EC036",
"} 	c #8CBE34",
"| 	c #124E89",
"1 	c #88BB30",
"2 	c #87BA2F",
"3 	c #8BBE33",
"4 	c #2AC1AF",
"5 	c #79C172",
"6 	c #79AF20",
"7 	c #6EA70F",
"8 	c #84B82D",
"9 	c #6FA710",
"0 	c #76AD1C",
"a 	c #71C17E",
"b 	c #38C1AA",
"c 	c #8DC140",
"d 	c #8DBF35",
"e 	c #86B92E",
"f 	c #8ABD32",
"g 	c #29C1AF",
"h 	c #4DC1A0",
"i 	c #8CC033",
"j 	c #8ABF31",
"k 	c #8ABF30",
"l 	c #89BF2F",
"m 	c #88BE2E",
"n 	c #88BE2D",
"o 	c #87BE2D",
"p 	c #7EB324",
"q 	c #7BB021",
"r 	c #7EB225",
"s 	c #8DC035",
"t 	c #8BC032",
"u 	c #89BE2E",
"v 	c #87BE2C",
"w 	c #88BF34",
"x 	c #42C1A3",
"y 	c #50C19E",
"z 	c #89BF30",
"A 	c #8EC035",
"B 	c #8EC136",
"C 	c #8CBF34",
"D 	c #7FB426",
"E 	c #7EB325",
"F 	c #8BBD33",
"G 	c #8EC13D",
"H 	c #49C2A7",
"I 	c #42BBA2",
"J 	c #94C446",
"K 	c #8ABC32",
"L 	c #84B82C",
"M 	c #80B427",
"N 	c #7EB224",
"O 	c #7CB122",
"P 	c #7DB223",
"Q 	c #84B72B",
"R 	c #89BC31",
"S 	c #94C44D",
"T 	c #32BBA7",
"U 	c #15B9AB",
"V 	c #8BB75A",
"W 	c #92C33D",
"X 	c #8FC136",
"Y 	c #8EC135",
"Z 	c #96C646",
"` 	c #84B25E",
" .	c #0ABCAF",
"..	c #05BDB1",
"+.	c #499F7B",
"@.	c #9CC45C",
"#.	c #87BE2B",
"$.	c #91C23B",
"%.	c #A7D064",
"&.	c #A3C965",
"*.	c #A2C765",
"=.	c #9FC564",
"-.	c #9EC364",
";.	c #9CBF62",
">.	c #97BB5E",
",.	c #8DB255",
"'.	c #3FA184",
").	c #04BEB3",
"!.	c #03C0B5",
"~.	c #12ABA0",
"{.	c #549867",
"].	c #99BF5C",
"^.	c #9CCA50",
"/.	c #7FB427",
"(.	c #8CBF35",
"_.	c #8DC034",
":.	c #8CBD35",
"<.	c #71A43D",
"[.	c #48976E",
"}.	c #449873",
"|.	c #429A78",
"1.	c #3E9B7C",
"2.	c #3B9D81",
"3.	c #359F88",
"4.	c #10ADA3",
"5.	c #08B7AC",
"6.	c #12A79E",
"7.	c #469871",
"8.	c #83A950",
"9.	c #A1CA60",
"0.	c #9DCB51",
"a.	c #8FC138",
"b.	c #75B968",
"c.	c #24AA9C",
"d.	c #0EA89F",
"e.	c #07B9AE",
"f.	c #03C0B4",
"g.	c #0CAEA5",
"h.	c #0FA89F",
"i.	c #2CA28F",
"j.	c #569359",
"k.	c #7FA54B",
"l.	c #A1C764",
"m.	c #A7D163",
"n.	c #9AC94D",
"o.	c #94C440",
"p.	c #8BBF31",
"q.	c #90C138",
"r.	c #94C541",
"s.	c #9BC94E",
"t.	c #A7D164",
"u.	c #9EC565",
"v.	c #4CA889",
"w.	c #0BB0A6",
"x.	c #0CACA3",
"y.	c #2DA28F",
"z.	c #46976E",
"A.	c #609246",
"B.	c #83A74C",
"C.	c #92B758",
"D.	c #9CC25F",
"E.	c #A2C962",
"F.	c #A6CE64",
"G.	c #A8D265",
"H.	c #A9D365",
"I.	c #A3CD61",
"J.	c #A1C962",
"K.	c #9BC25F",
"L.	c #91B657",
"M.	c #81A54B",
"N.	c #5C9149",
"O.	c #449872",
"P.	c #20A597",
"Q.	c #0CAEA4",
"R.	c #04BFB3",
"S.	c #0BAFA5",
"T.	c #11A89E",
"U.	c #28A392",
"V.	c #3D9C7F",
"W.	c #48966D",
"X.	c #50925D",
"Y.	c #569051",
"Z.	c #588E48",
"`.	c #5A8E45",
" +	c #588F48",
".+	c #50935E",
"++	c #47976E",
"@+	c #3B9C80",
"#+	c #26A493",
"$+	c #10A89E",
"%+	c #04BFB4",
"&+	c #08B6AC",
"*+	c #0DAAA1",
"=+	c #0DA89F",
"-+	c #14A79D",
";+	c #16A79C",
">+	c #0DABA1",
",+	c #08B8AD",
"'+	c #08B6AB",
")+	c #0DACA2",
"!+	c #06BBB0",
"~+	c #09B5AA",
"{+	c #0DA9A0",
"]+	c #0DAAA0",
"^+	c #0DACA3",
"/+	c #09B5AB",
"(+	c #05BCB1",
"_+	c #04BEB2",
"                                                                                                                                ",
"                                                                                                                                ",
"                                                                                                                                ",
"                                                                                                                                ",
"                                                                                                                                ",
"                                                                                                                                ",
"                                                                                                                                ",
"                                                                                                                                ",
"                                                                                                                                ",
"                                                                                                                                ",
"                                                                                                                                ",
"                                                                                                                                ",
"                                                                                                                                ",
"                                                                                                                                ",
"                                                      . . . .           + + +                                                   ",
"                                                    . . . @ @ .       + + @ @ +                                                 ",
"                                                    # . @ @ @ @ . . # # . @ @ @                                                 ",
"                                                    # . @ @ @ @ . . . . . . @ @                                                 ",
"                                                    . . . @ @ . . . . . . . + +                                                 ",
"                                                    . . . . . . + . . . . . + $ +                                               ",
"                                                  . . . # . . . . + + + + + $ + +                                               ",
"                                                # . . . . . . . % % % % % % & & +                                               ",
"                                              . . . . . . . . % % % % % % % & & &                                               ",
"                                            . . . . . . . . . % % % % % % % & & &                                               ",
"                                        * = . # # + . + . . . % % % % % % % & & - ;                                             ",
"                                    > , ' . . # # . + + . . . & & & & & & & ) + ! ~ { ]                                         ",
"                                  ^ / ! ! . . . . . . + . # # & & & & & & & + + ! ! ! ( _                                       ",
"                                : < [ } ! # . . . . . + . # # & & & & & & & | | 1 2 3 ! / 4                                     ",
"                                5 ! 6 7 8 . . . + + + + . . . . & & & & & & | | + 9 0 [ ! a                                     ",
"                              b c ! d e f ! . % . % + | + . % . % & & & & + + & + & ! ! ! ~ g                                   ",
"                              h [ i j k l m n o p q q q q q q q q q q q r s t u v v v o n w x                                   ",
"                              y z j i s A B ! ! C D q q q q q q q q q E F ! ! ! ! ! ! ! ! G H                                   ",
"                              I J ! ! ! ! ! ! ! ! ! K L M N O P M Q R [ ! ! ! ! ! ! ! ! ! S T                                   ",
"                              U V W ! ! ! ! ! ! ! ! ! ! ! ! s u ! ! ! ! ! X B Y A A ! W Z `  .                                  ",
"                              ..+.@.W ! ! ! ! ! ! ! ! f B ! ! #.! ! ! ! $.%.&.*.=.-.;.>.,.'.).                                  ",
"                              !.~.{.].^.! ! ! ! ! ! ! /.(.! ! _.l ! ! ! ! :.<.[.}.|.1.2.3.4.                                    ",
"                                5.6.7.8.9.0.X ! ! ! ! ! ! ! ! ! v ! ! ! ! ! a.b.c.d.d.d.d.e.                                    ",
"                                f.g.h.i.j.k.l.m.n.o.a.! ! ! ! ! p.p.! q.r.s.t.u.v.d.d.d.w.                                      ",
"                                  ).x.d.d.y.z.A.B.C.D.E.F.G.H.H.G.I.J.K.L.M.N.O.P.d.d.Q.R.                                      ",
"                                    R.S.d.d.d.T.U.V.W.X.Y.Z.`.`. +Y..+++@+#+$+d.d.d.w.%+                                        ",
"                                      f.&+*+d.d.d.d.d.=+$+-+;+;+-+$+=+d.d.d.d.d.>+,+                                            ",
"                                          R.'+)+d.d.d.d.d.d.d.d.d.d.d.d.d.d.x.&+R.                                              ",
"                                                !+~+S.)+{+d.d.d.d.]+^+w./+(+                                                    ",
"                                                      f.%+R._+_+R.%+f.                                                          ",
"                                                                                                                                ",
"                                                                                                                                ",
"                                                                                                                                ",
"                                                                                                                                ",
"                                                                                                                                ",
"                                                                                                                                ",
"                                                                                                                                ",
"                                                                                                                                ",
"                                                                                                                                ",
"                                                                                                                                ",
"                                                                                                                                ",
"                                                                                                                                ",
"                                                                                                                                ",
"                                                                                                                                ",
"                                                                                                                                ",
"                                                                                                                                ",
"                                                                                                                                ",
"                                                                                                                                ",
"                                                                                                                                ",
"                                                                                                                                "};
