/* XPM */
static char * wall_front_xpm[] = {
"64 64 175 2",
"  	c #B0937A",
". 	c #B59A7E",
"+ 	c #D1BD97",
"@ 	c #D1BF9B",
"# 	c #D4CEB5",
"$ 	c #D5DAC8",
"% 	c #D7E2D3",
"& 	c #D6E1D2",
"* 	c #D7E7DB",
"= 	c #D1C09D",
"- 	c #D5D7C2",
"; 	c #D7E3D6",
"> 	c #D4D3BC",
", 	c #D2C7A9",
"' 	c #D1BE98",
") 	c #D3CDB3",
"! 	c #D7E1D3",
"~ 	c #D2C3A1",
"{ 	c #D6DECE",
"] 	c #D7E2D4",
"^ 	c #D3CDB2",
"/ 	c #D1BD98",
"( 	c #D2C2A1",
"_ 	c #D5D8C5",
": 	c #D7E3D5",
"< 	c #D2C6A7",
"[ 	c #D2C4A3",
"} 	c #D7E5D9",
"| 	c #D4CFB6",
"1 	c #D3CAAE",
"2 	c #D3CEB4",
"3 	c #D1BE99",
"4 	c #D2C3A2",
"5 	c #DAD5C0",
"6 	c #ECEFE9",
"7 	c #E4EEE6",
"8 	c #E4F0EA",
"9 	c #E3E8DF",
"0 	c #D7E5D8",
"a 	c #D2C5A5",
"b 	c #D7E2D5",
"c 	c #F1FCFA",
"d 	c #EDFDFC",
"e 	c #EEFBF9",
"f 	c #E5F3EE",
"g 	c #E4F0E9",
"h 	c #F3FEFD",
"i 	c #D5D7C3",
"j 	c #D4D0B9",
"k 	c #D6DDCC",
"l 	c #F0FCFB",
"m 	c #D6E0D2",
"n 	c #D3CAAD",
"o 	c #E3EAE1",
"p 	c #F2FCFB",
"q 	c #E6FBF9",
"r 	c #DBE1D3",
"s 	c #D2C19F",
"t 	c #D2C29F",
"u 	c #D8ECE3",
"v 	c #EDFCFB",
"w 	c #EDF2EC",
"x 	c #D2C19E",
"y 	c #D8C9AD",
"z 	c #D3C8AA",
"A 	c #D9F0E9",
"B 	c #EDFBF9",
"C 	c #D8ECE2",
"D 	c #F1FCFB",
"E 	c #DDEDE6",
"F 	c #D4D4BE",
"G 	c #D4CFB7",
"H 	c #D6DBCA",
"I 	c #E6FBFA",
"J 	c #E2DFD0",
"K 	c #D4D0B7",
"L 	c #F3FCFB",
"M 	c #E7EEE6",
"N 	c #EEF3ED",
"O 	c #E0F9F6",
"P 	c #E5EBE2",
"Q 	c #E7FAF8",
"R 	c #D2C2A0",
"S 	c #D6E0D1",
"T 	c #D3CBAF",
"U 	c #ECFAF7",
"V 	c #E1EAE0",
"W 	c #F1F5F1",
"X 	c #E9F9F6",
"Y 	c #D3CCB1",
"Z 	c #EEFDFC",
"` 	c #E1DDCD",
" .	c #D9D3BC",
"..	c #D6DECF",
"+.	c #EAEDE4",
"@.	c #F3FDFB",
"#.	c #EDFCFA",
"$.	c #DADFCF",
"%.	c #D2C09D",
"&.	c #EBF1EB",
"*.	c #F2FAF8",
"=.	c #ECF8F5",
"-.	c #DCE6DB",
";.	c #D7E6DA",
">.	c #ECF3EE",
",.	c #F2F9F6",
"'.	c #ECF6F2",
").	c #DCEAE0",
"!.	c #EBF3ED",
"~.	c #D3C9AB",
"{.	c #EBF0EA",
"].	c #F2FBF8",
"^.	c #DCE6DA",
"/.	c #D6DECD",
"(.	c #EAECE4",
"_.	c #F3FDFC",
":.	c #D1C09B",
"<.	c #F1FDFC",
"[.	c #D5D9C6",
"}.	c #D5D5C1",
"|.	c #D3C9AD",
"1.	c #F1FDFD",
"2.	c #F5FEFD",
"3.	c #D3C9AC",
"4.	c #EEF9F7",
"5.	c #E3E7DD",
"6.	c #DBE0D2",
"7.	c #D1BF9A",
"8.	c #EDFAF8",
"9.	c #DDEAE0",
"0.	c #EDF4EF",
"a.	c #D4D1B9",
"b.	c #E3E3D6",
"c.	c #D5D6C1",
"d.	c #D7E4D8",
"e.	c #D4D0B8",
"f.	c #E9FBFA",
"g.	c #D3CCB0",
"h.	c #D8EBE1",
"i.	c #EFF0E9",
"j.	c #F3F9F6",
"k.	c #DBFBF9",
"l.	c #F5F9F6",
"m.	c #D8CEB4",
"n.	c #D8E9DF",
"o.	c #D4D2BB",
"p.	c #D4D4BF",
"q.	c #E6F8F5",
"r.	c #E4EFE8",
"s.	c #D4D3BD",
"t.	c #D8CAAF",
"u.	c #D7C6A8",
"v.	c #F1FBF9",
"w.	c #D2C7A8",
"x.	c #D1C09C",
"y.	c #EDF8F5",
"z.	c #F0F9F7",
"A.	c #E3E6DA",
"B.	c #D2C19D",
"C.	c #D5D5C0",
"D.	c #D6DFD0",
"E.	c #D2C5A6",
"F.	c #D3C8AB",
"G.	c #D7E6D9",
"H.	c #D6DCCB",
"I.	c #D2C6A6",
"J.	c #D6E1D3",
"K.	c #B69B81",
"L.	c #D6C4A3",
"M.	c #D7C6A5",
"N.	c #DCCCAE",
"O.	c #B89F86",
"P.	c #B89F87",
"Q.	c #E2D5C0",
"R.	c #AF9279",
"  . . . . . . . . . . . . . . . . . . . . . . . . . . . . . . . . . . . . . . . . . . . . . . . . . . . . . . . . . . . . . .   ",
". + + + + + + + + + + + + + + + + + + + + + + + + + + + + + + + + + + + + + + + + + + + + + + + + + + + + + + + + + + + + + + . ",
". + + + + + + + + + + + + + + + + + + + + + + + + + + + + + + + + + + + + + + + + + + + + + + + + + + + + + + + + + + + + + + . ",
". + + + + + + + + + + + + + + + + + + + + + + + + + + + + + + + + + + + + + + + + + + + + + + + + + + + + + + + + + + + + + + . ",
". + + + + + + + + + + + + + + + + + + + + + + + + + + + + + + + + + + + + + + + + + + + + + + + + + + + + + + + + + + + + + + . ",
". + + + + + + + + + + + + + + + + + + + + + + + + + @ # $ % & * * & % $ # @ + + + + + + + + + + + + + + + + + + + + + + + + + . ",
". + + + + + + + + + + + + + + + + + + + + + + = - ; & > , ' ) ! ! ) ' , > & ; - = + + + + + + + + + + + + + + + + + + + + + + . ",
". + + + + + + + + + + + + + + + + + + + + ~ { ] ^ / + + + ) ! / / ! ) + + + / ^ ] { ( + + + + + + + + + + + + + + + + + + + + . ",
". + + + + + + + + + + + + + + + + + + ' _ : < + + + + + ) ! / + + / ! ) + + + + + < : _ ' + + + + + + + + + + + + + + + + + + . ",
". + + + + + + + + + + + + + + + + + [ } | + + + + + + ) ! / + + + + / ! ) + + + + + + | } [ + + + + + + + + + + + + + + + + + . ",
". + + + + + + + + + + + + + + + + 1 } ( + + + + + + ) ! / + + + + + + / ! ) + + + + + + ( } 1 + + + + + + + + + + + + + + + + . ",
". + + + + + + + + + + + + + + + 2 ] 3 + + + + + + ) ! / + + + + + + + + / ! ) + + + + + + 3 ] 2 + + + + + + + + + + + + + + + . ",
". + + + + + + + + + + + + + + 1 ] / + + + + + + ) ! / + + + + + + + + + + / ! ) + + + + + + / ] 1 + + + + + + + + + + + + + + . ",
". + + + + + + + + + + + + + 4 } 3 + + + + + + ) ! / + @ 5 6 7 8 8 7 9 5 @ + / ! ) + + + + + + 3 } 4 + + + + + + + + + + + + + . ",
". + + + + + + + + + + + + / 0 4 + + + + + + ) ! / a b c d e f g g f e h c b a / ! ) + + + + + + 4 0 / + + + + + + + + + + + + . ",
". + + + + + + + + + + + + i j + + + + + + ) ! 3 k l e m n ' + + + + ' n o p q r 3 ! ) + + + + + + j i + + + + + + + + + + + + . ",
". + + + + + + + + + + + s ; + + + + + + ) ! t u v w x + + + + + + + + + + y o v u t ! ) + + + + + + ; s + + + + + + + + + + + . ",
". + + + + + + + + + + + k z + + + + + ) ! t A c | + + + + + + + + + + + + + + 5 B A t ! ) + + + + + z k + + + + + + + + + + + . ",
". + + + + + + + + + + @ ; + + + + + ) ! 3 C D n + + + + + + + + + + + + + + + + n B E 3 ! ) + + + + + ; @ + + + + + + + + + + . ",
". + + + + + + + + + + F G + + + + ) ! / H I J + + + + + + + + + + + + + + + + + + K v H / ! ) + + + + G F + + + + + + + + + + . ",
". + + + + + + + + + + : ' + + + ) ! / 4 L M + + + + + + + + + + + + + + + + + + + + N O 4 / ! ) + + + ' : + + + + + + + + + + . ",
". + + + + + + + + + 3 ] + + + ) ! / + P Q R + + + + + + + + + + + + + + + + + + + + R D S + / ! ) + + + ] 3 + + + + + + + + + . ",
". + + + + + + + + + T i + + ) ! / + 3 U V + + + + + + + + + + + + + + + + + + + + + + W X 3 + / ! ) + + i T + + + + + + + + + . ",
". + + + + + + + + + i T + ) ! / + + Y Z ` + + + + + + + + + + + + + + + + + + + + + + ) d  .+ + / ! ) + T i + + + + + + + + + . ",
". + + + + + + + + + ..= ) ! / + + + +.@.3 + + + + + + + + + + + + + + + + + + + + + + 3 #.$.+ + + / ! ) %...+ + + + + + + + + . ",
". + + + + + + + + + ] 2 ! / + + + + &.*.+ + + + + + + + + + + + + + + + + + + + + + + + =.-.+ + + + / ! 2 ] + + + + + + + + + . ",
". + + + + + + + + + ;.] / + + + + + >.,.+ + + + + + + + + + + + + + + + + + + + + + + + '.).+ + + + + / ] ;.+ + + + + + + + + . ",
". + + + + + + + + + } 0 @ + + + + + !.,.+ + + + + + + + + + + + + + + + + + + + + + + + '.).+ + + + + @ 0 } + + + + + + + + + . ",
". + + + + + + + + + ] ~.0 @ + + + + {.].+ + + + + + + + + + + + + + + + + + + + + + + + =.^.+ + + + @ 0 ~.% + + + + + + + + + . ",
". + + + + + + + + + /.s z 0 @ + + + (._.:.+ + + + + + + + + + + + + + + + + + + + + + :.<.[.+ + + @ 0 z s /.+ + + + + + + + + . ",
". + + + + + + + + + }.Y + z 0 @ + + |.1.K + + + + + + + + + + + + + + + + + + + + + + K 2.3.+ + @ 0 z + Y }.+ + + + + + + + + . ",
". + + + + + + + + + 3.[.+ + z 0 @ + / 4.>.+ + + + + + + + + + + + + + + + + + + + + + 7 4./ + @ 0 z + + [.3.+ + + + + + + + + . ",
". + + + + + + + + + ' : + + + z 0 @ + 5.q a + + + + + + + + + + + + + + + + + + + + a v 6.+ @ 0 z + + + : ' + + + + + + + + + . ",
". + + + + + + + + + + ] 7.+ + + z 0 @ x 8.9.+ + + + + + + + + + + + + + + + + + + + 0.e x @ 0 z + + + 7.] + + + + + + + + + + . ",
". + + + + + + + + + + a.> + + + + z 0 @ b.Z b.+ + + + + + + + + + + + + + + + + + c.2.c.@ 0 z + + + + > j + + + + + + + + + + . ",
". + + + + + + + + + + 3 d.+ + + + + z 0 @ 7 q J + + + + + + + + + + + + + + + + e.f.7 @ 0 z + + + + + d.3 + + + + + + + + + + . ",
". + + + + + + + + + + + [.g.+ + + + + z 0 x h.q i.+ + + + + + + + + + + + + + i v j.x 0 z + + + + + Y [.+ + + + + + + + + + + . ",
". + + + + + + + + + + + @ } + + + + + + z 0 x } k.l.m.+ + + + + + + + + + < n.1.} x 0 z + + + + + + } @ + + + + + + + + + + + . ",
". + + + + + + + + + + + + o.c.+ + + + + + z 0 @ p.q.v r.s.t.u.+ + + R s.0.q v.p.@ 0 z + + + + + + c.o.+ + + + + + + + + + + + . ",
". + + + + + + + + + + + + + ] w.+ + + + + + z 0 @ x.$ y.2.v 8.z.z.v.<.1.y.A.x.@ 0 z + + + + + + w.] + + + + + + + + + + + + + . ",
". + + + + + + + + + + + + + = ;.B.+ + + + + + z 0 @ + + < C.D.; ; D.C.< + + @ 0 z + + + + + + B.;.x.+ + + + + + + + + + + + + . ",
". + + + + + + + + + + + + + + E.} 7.+ + + + + + z 0 @ + + + + + + + + + + @ 0 z + + + + + + 7.} E.+ + + + + + + + + + + + + + . ",
". + + + + + + + + + + + + + + + F.} x + + + + + + z 0 @ + + + + + + + + @ 0 z + + + + + + x } F.+ + + + + + + + + + + + + + + . ",
". + + + + + + + + + + + + + + + + a ;., + + + + + + z 0 @ + + + + + + @ 0 z + + + + + + , ;.a + + + + + + + + + + + + + + + + . ",
". + + + + + + + + + + + + + + + + + x.% i / + + + + + z 0 @ + + + + @ 0 z + + + + + / i % x.+ + + + + + + + + + + + + + + + + . ",
". + + + + + + + + + + + + + + + + + + + e.G.2 + + + + + z 0 @ + + @ 0 z + + + + + 2 G.e.+ + + + + + + + + + + + + + + + + + + . ",
". + + + + + + + + + + + + + + + + + + + + 7.i 0 c.x.+ + + z 0 @ @ 0 z + + + x.c.0 i 7.+ + + + + + + + + + + + + + + + + + + + . ",
". + + + + + + + + + + + + + + + + + + + + + + / 2 ! ] H.G < n 0 0 n < G H.] ! 2 / + + + + + + + + + + + + + + + + + + + + + + . ",
". + + + + + + + + + + + + + + + + + + + + + + + + + + I.a.H J.; ; J.H a.I.+ + + + + + + + + + + + + + + + + + + + + + + + + + . ",
". + + + + + + + + + + + + + + + + + + + + + + + + + + + + + + + + + + + + + + + + + + + + + + + + + + + + + + + + + + + + + + . ",
". + + + + + + + + + + + + + + + + + + + + + + + + + + + + + + + + + + + + + + + + + + + + + + + + + + + + + + + + + + + + + + . ",
". + + + + + + + + + + + + + + + + + + + + + + + + + + + + + + + + + + + + + + + + + + + + + + + + + + + + + + + + + + + + + + . ",
"K.L.L.L.L.L.L.L.L.L.L.L.L.L.L.L.L.L.L.L.L.L.L.L.L.L.L.L.L.L.L.L.L.L.L.L.L.L.L.L.L.L.L.L.L.L.L.L.L.L.L.L.L.L.L.L.L.L.L.L.L.M.N.O.",
"P.Q.Q.Q.Q.Q.Q.Q.Q.Q.Q.Q.Q.Q.Q.Q.Q.Q.Q.Q.Q.Q.Q.Q.Q.Q.Q.Q.Q.Q.Q.Q.Q.Q.Q.Q.Q.Q.Q.Q.Q.Q.Q.Q.Q.Q.Q.Q.Q.Q.Q.Q.Q.Q.Q.Q.Q.Q.Q.Q.Q.Q.Q.P.",
"R.R.R.R.R.R.R.R.R.R.R.R.R.R.R.R.R.R.R.R.R.R.R.R.R.R.R.R.R.R.R.R.R.R.R.R.R.R.R.R.R.R.R.R.R.R.R.R.R.R.R.R.R.R.R.R.R.R.R.R.R.R.R.R.",
"R.R.R.R.R.R.R.R.R.R.R.R.R.R.R.R.R.R.R.R.R.R.R.R.R.R.R.R.R.R.R.R.R.R.R.R.R.R.R.R.R.R.R.R.R.R.R.R.R.R.R.R.R.R.R.R.R.R.R.R.R.R.R.R.",
"R.R.R.R.R.R.R.R.R.R.R.R.R.R.R.R.R.R.R.R.R.R.R.R.R.R.R.R.R.R.R.R.R.R.R.R.R.R.R.R.R.R.R.R.R.R.R.R.R.R.R.R.R.R.R.R.R.R.R.R.R.R.R.R.",
"R.R.R.R.R.R.R.R.R.R.R.R.R.R.R.R.R.R.R.R.R.R.R.R.R.R.R.R.R.R.R.R.R.R.R.R.R.R.R.R.R.R.R.R.R.R.R.R.R.R.R.R.R.R.R.R.R.R.R.R.R.R.R.R.",
"R.R.R.R.R.R.R.R.R.R.R.R.R.R.R.R.R.R.R.R.R.R.R.R.R.R.R.R.R.R.R.R.R.R.R.R.R.R.R.R.R.R.R.R.R.R.R.R.R.R.R.R.R.R.R.R.R.R.R.R.R.R.R.R.",
"R.R.R.R.R.R.R.R.R.R.R.R.R.R.R.R.R.R.R.R.R.R.R.R.R.R.R.R.R.R.R.R.R.R.R.R.R.R.R.R.R.R.R.R.R.R.R.R.R.R.R.R.R.R.R.R.R.R.R.R.R.R.R.R.",
"R.R.R.R.R.R.R.R.R.R.R.R.R.R.R.R.R.R.R.R.R.R.R.R.R.R.R.R.R.R.R.R.R.R.R.R.R.R.R.R.R.R.R.R.R.R.R.R.R.R.R.R.R.R.R.R.R.R.R.R.R.R.R.R.",
"R.R.R.R.R.R.R.R.R.R.R.R.R.R.R.R.R.R.R.R.R.R.R.R.R.R.R.R.R.R.R.R.R.R.R.R.R.R.R.R.R.R.R.R.R.R.R.R.R.R.R.R.R.R.R.R.R.R.R.R.R.R.R.R.",
"R.R.R.R.R.R.R.R.R.R.R.R.R.R.R.R.R.R.R.R.R.R.R.R.R.R.R.R.R.R.R.R.R.R.R.R.R.R.R.R.R.R.R.R.R.R.R.R.R.R.R.R.R.R.R.R.R.R.R.R.R.R.R.R.",
"R.R.R.R.R.R.R.R.R.R.R.R.R.R.R.R.R.R.R.R.R.R.R.R.R.R.R.R.R.R.R.R.R.R.R.R.R.R.R.R.R.R.R.R.R.R.R.R.R.R.R.R.R.R.R.R.R.R.R.R.R.R.R.R."};
