/* XPM */
static char * water_front_xpm[] = {
"64 64 285 2",
"  	c #0F9E95",
". 	c #109E95",
"+ 	c #149F96",
"@ 	c #1A9F97",
"# 	c #1CA097",
"$ 	c #1EA198",
"% 	c #199F96",
"& 	c #159F96",
"* 	c #1BA097",
"= 	c #179F96",
"- 	c #32A59C",
"; 	c #69B9B3",
"> 	c #87C9C4",
", 	c #99D5D1",
"' 	c #A3DCD8",
") 	c #A1DBD7",
"! 	c #97D5D1",
"~ 	c #92D0CC",
"{ 	c #8DCCC7",
"] 	c #86C9C4",
"^ 	c #8BCCC7",
"/ 	c #8CCEC9",
"( 	c #93D2CD",
"_ 	c #9AD6D2",
": 	c #6CBAB4",
"< 	c #2FA49C",
"[ 	c #139F96",
"} 	c #26A299",
"| 	c #3DA9A1",
"1 	c #3FA9A2",
"2 	c #39A8A0",
"3 	c #2AA39A",
"4 	c #119E95",
"5 	c #3BA79F",
"6 	c #80C5C0",
"7 	c #99D6D1",
"8 	c #8ECFCA",
"9 	c #89CAC5",
"0 	c #8CCCC8",
"a 	c #96D4CF",
"b 	c #9CD6D2",
"c 	c #7CC3BD",
"d 	c #36A69D",
"e 	c #2FA59C",
"f 	c #62B8B1",
"g 	c #78C2BC",
"h 	c #77C0BA",
"i 	c #69BAB3",
"j 	c #53AFA8",
"k 	c #2BA39B",
"l 	c #0D9E95",
"m 	c #1DA097",
"n 	c #5BB3AC",
"o 	c #AAE0DD",
"p 	c #A8DFDB",
"q 	c #98D4D0",
"r 	c #7BC3BD",
"s 	c #7CC3BE",
"t 	c #83C7C2",
"u 	c #87CBC6",
"v 	c #89CCC7",
"w 	c #73BFB9",
"x 	c #50AEA7",
"y 	c #22A299",
"z 	c #129F96",
"A 	c #6FBCB6",
"B 	c #88CBC6",
"C 	c #7FC5C0",
"D 	c #7BC3BE",
"E 	c #8ACBC6",
"F 	c #A0D9D5",
"G 	c #78C1BB",
"H 	c #20A198",
"I 	c #70BDB7",
"J 	c #76C0BB",
"K 	c #44ABA3",
"L 	c #48ABA4",
"M 	c #6EBBB5",
"N 	c #75BFB9",
"O 	c #71BDB7",
"P 	c #5DB4AD",
"Q 	c #3BA8A0",
"R 	c #25A199",
"S 	c #0E9E95",
"T 	c #33A59D",
"U 	c #62B6AF",
"V 	c #63B6B0",
"W 	c #1EA097",
"X 	c #0F9F96",
"Y 	c #0FAEA4",
"Z 	c #1DAFA2",
"` 	c #40B198",
" .	c #4DB392",
"..	c #58B58B",
"+.	c #5AB589",
"@.	c #57B58B",
"#.	c #4CB392",
"$.	c #3FB199",
"%.	c #1AAEA3",
"&.	c #31B09E",
"*.	c #5DB687",
"=.	c #75BB6E",
"-.	c #86BE52",
";.	c #8FC137",
">.	c #8FC138",
",.	c #84BE55",
"'.	c #74BA71",
").	c #5AB58A",
"!.	c #2CB09F",
"~.	c #50B490",
"{.	c #7BBC66",
"].	c #8EC139",
"^.	c #8EC13C",
"/.	c #78BB6A",
"(.	c #4AB393",
"_.	c #03C0B4",
":.	c #3CC0A8",
"<.	c #7EC168",
"[.	c #7AC170",
"}.	c #34C0AB",
"|.	c #03C1B5",
"1.	c #54C19B",
"2.	c #8CC142",
"3.	c #8EC036",
"4.	c #8CBE34",
"5.	c #8BBE34",
"6.	c #8BC147",
"7.	c #4BC1A1",
"8.	c #8ABD32",
"9.	c #84B82C",
"0.	c #8DC036",
"a.	c #8CBF34",
"b.	c #7EB325",
"c.	c #7BB021",
"d.	c #7DB224",
"e.	c #83B72B",
"f.	c #7CB123",
"g.	c #7EB326",
"h.	c #7DB225",
"i.	c #84B72C",
"j.	c #3FC1A7",
"k.	c #07C1B5",
"l.	c #85C15A",
"m.	c #70A813",
"n.	c #82B62A",
"o.	c #88BB30",
"p.	c #7BB022",
"q.	c #86B92E",
"r.	c #7BB123",
"s.	c #80B528",
"t.	c #7FC167",
"u.	c #40C1A7",
"v.	c #8EC136",
"w.	c #7DB223",
"x.	c #88BE2D",
"y.	c #87BE2C",
"z.	c #88BE2E",
"A.	c #8ABF30",
"B.	c #8CC033",
"C.	c #8FC136",
"D.	c #2DC1AE",
"E.	c #4BC09D",
"F.	c #89BF2F",
"G.	c #82B629",
"H.	c #8EC035",
"I.	c #8ABF31",
"J.	c #46C2A4",
"K.	c #4DC0A4",
"L.	c #90C23A",
"M.	c #7FB326",
"N.	c #87BA2F",
"O.	c #93C440",
"P.	c #3EBEA7",
"Q.	c #20B8A7",
"R.	c #97C24F",
"S.	c #8DBF35",
"T.	c #8ABC32",
"U.	c #86BA2D",
"V.	c #83B92A",
"W.	c #89BC31",
"X.	c #91BD4F",
"Y.	c #14BBAD",
"Z.	c #06BCB0",
"`.	c #6DA566",
" +	c #9CC951",
".+	c #87BE2B",
"++	c #90C239",
"@+	c #A2CF58",
"#+	c #A4D15C",
"$+	c #AAD564",
"%+	c #ADD768",
"&+	c #ABD566",
"*+	c #A5CF61",
"=+	c #A4CD60",
"-+	c #A3CB61",
";+	c #62A26D",
">+	c #05BEB2",
",+	c #23A596",
"'+	c #7AA553",
")+	c #A2CD5D",
"!+	c #78AE1E",
"~+	c #8CBF35",
"{+	c #8FBD41",
"]+	c #6B9429",
"^+	c #608923",
"/+	c #5B8A2C",
"(+	c #578D42",
"_+	c #568E4C",
":+	c #568E4E",
"<+	c #509158",
"[+	c #1CA89C",
"}+	c #0AB2A8",
"|+	c #26A494",
"1+	c #64964E",
"2+	c #9DC360",
"3+	c #A0CD57",
"4+	c #89BF46",
"5+	c #54B187",
"6+	c #0EA89F",
"7+	c #09B4AA",
"8+	c #04BFB3",
"9+	c #0DAAA1",
"0+	c #15A79C",
"a+	c #459873",
"b+	c #749C44",
"c+	c #9CC15F",
"d+	c #A8D264",
"e+	c #99C84B",
"f+	c #8DC035",
"g+	c #9CCA4E",
"h+	c #A6D166",
"i+	c #47AB90",
"j+	c #0DABA2",
"k+	c #04C0B4",
"l+	c #06BBB0",
"m+	c #0EA9A0",
"n+	c #1CA699",
"o+	c #429A77",
"p+	c #578E47",
"q+	c #84A84C",
"r+	c #9ABF60",
"s+	c #A0C760",
"t+	c #A5CE62",
"u+	c #ACD666",
"v+	c #A4D05B",
"w+	c #A0CD55",
"x+	c #9FCD54",
"y+	c #9FCF57",
"z+	c #ACD667",
"A+	c #A0C761",
"B+	c #9ABE60",
"C+	c #80A447",
"D+	c #558E4C",
"E+	c #2BA28F",
"F+	c #0DAAA0",
"G+	c #05BDB1",
"H+	c #24A494",
"I+	c #3D9C7E",
"J+	c #4B9568",
"K+	c #548F50",
"L+	c #5B8A31",
"M+	c #6A912C",
"N+	c #80A449",
"O+	c #82A64B",
"P+	c #7FA347",
"Q+	c #6A912B",
"R+	c #5B8B33",
"S+	c #548F51",
"T+	c #4A966A",
"U+	c #3B9D80",
"V+	c #21A596",
"W+	c #0AB1A7",
"X+	c #1AA698",
"Y+	c #23A495",
"Z+	c #19A698",
"`+	c #0AB3A9",
" @	c #0AB2A7",
".@	c #0AB3A8",
"+@	c #05BDB2",
"@@	c #07B9AE",
"#@	c #0CADA3",
"$@	c #0CADA4",
"%@	c #07BAAF",
"&@	c #04BEB3",
"*@	c #05BCB1",
"                                                                                                                                ",
"                                                                                                                                ",
"                . + @ # $ % &                                                                             + * # =               ",
"      - ; > , ' ) ! ~ { ] ^ / ( _ ^ : <                   [ } | 1 +               . 2 3 4           5 6 7 8 9 0 a ' b c d       ",
"  e f g h i j k l               m n ^ o p q ^ 6 r s t u v ] w x y &               z k A B B C D E F o G H         & x I J K     ",
"                                      z L M N O P Q R S                                   . T U N V W                           ",
"                                                                                                                                ",
"                                                                                                                                ",
"                                                                                                                                ",
"                                                                                                                                ",
"                                                                                                                                ",
"                                                                                                                                ",
"                                                                                                                                ",
"                                                                                                                                ",
"X X X X X X X X X X X X X X X X X X X X X X X X X X X X X X X X X X X X X X X X X X X X X X X X X X X X X X X X X X X X X X X X ",
"Y Y Y Y Y Y Y Y Y Y Y Y Y Y Y Y Y Y Y Y Y Y Y Y Y Y Y Y Y Y Y Y Y Y Y Y Y Y Y Y Y Y Y Y Y Y Y Y Y Y Y Y Y Y Y Y Y Y Y Y Y Y Y Y ",
"Y Y Y Y Y Y Y Y Y Y Y Y Y Y Y Y Y Y Y Y Y Y Y Y Y Y Y Y Y Y Y Y Y Y Y Y Y Y Y Y Y Y Y Y Y Y Y Y Y Y Y Y Y Y Y Y Y Y Y Y Y Y Y Y ",
"Y Y Y Y Y Y Y Y Y Y Y Y Y Y Y Y Y Y Y Y Y Y Y Y Y Y Y Y Y Y Y Y Y Y Y Y Y Y Y Y Y Y Y Y Y Y Y Y Y Y Y Y Y Y Y Y Y Y Y Y Y Y Y Y ",
"Y Y Y Y Y Y Y Y Y Y Y Y Y Y Y Y Y Y Y Y Y Y Y Y Y Y Y Y Y Y Y Y Y Y Y Y Y Y Y Y Y Y Y Y Y Y Y Y Y Y Y Y Y Y Y Y Y Y Y Y Y Y Y Y ",
"Y Y Y Y Y Y Y Y Y Y Y Y Y Y Y Y Y Y Y Y Y Y Y Y Y Y Y Y Y Y Y Y Y Y Y Y Y Y Y Y Y Y Y Y Y Y Y Y Y Y Y Y Y Y Y Y Y Y Y Y Y Y Y Y ",
"Y Y Y Y Y Y Y Y Y Y Y Y Y Y Y Y Y Y Y Y Y Y Y Y Y Y Y Y Y Y Y Y Y Y Y Y Y Y Y Y Y Y Y Y Y Y Y Y Y Y Y Y Y Y Y Y Y Y Y Y Y Y Y Y ",
"Y Y Y Y Y Y Y Y Y Y Y Y Y Y Y Y Y Y Y Y Y Y Y Y Y Y Y Y Y Y Y Y Y Y Y Y Y Y Y Y Y Y Y Y Y Y Y Y Y Y Y Y Y Y Y Y Y Y Y Y Y Y Y Y ",
"Y Y Y Y Y Y Y Y Y Y Y Y Y Y Y Y Y Y Y Y Y Y Y Y Y Y Y Y Y Y Y Y Y Y Y Y Y Y Y Y Y Y Y Y Y Y Y Y Y Y Y Y Y Y Y Y Y Y Y Y Y Y Y Y ",
"Y Y Y Y Y Y Y Y Y Y Y Y Y Y Y Y Y Y Y Y Y Y Y Y Y Y Y Y Y Y Y Y Y Y Y Y Y Y Y Y Y Y Y Y Y Y Y Y Y Y Y Y Y Y Y Y Y Y Y Y Y Y Y Y ",
"Y Y Y Y Y Y Y Y Y Y Y Y Y Y Y Y Y Y Y Y Y Y Y Y Y Y Z `  ...+.+.@.#.$.%.Y Y Y Y Y Y Y Y Y Y Y Y Y Y Y Y Y Y Y Y Y Y Y Y Y Y Y Y ",
"Y Y Y Y Y Y Y Y Y Y Y Y Y Y Y Y Y Y Y Y Y Y &.*.=.-.;.;.;.;.;.;.;.;.;.>.,.'.).!.Y Y Y Y Y Y Y Y Y Y Y Y Y Y Y Y Y Y Y Y Y Y Y Y ",
"Y Y Y Y Y Y Y Y Y Y Y Y Y Y Y Y Y Y Y Y ~.{.].;.;.;.;.;.;.;.;.;.;.;.;.;.;.;.;.^./.(.Y Y Y Y Y Y Y Y Y Y Y Y Y Y Y Y Y Y Y Y Y Y ",
"_._._._._._._._._._._._._._._._._._.:.<.;.;.;.;.;.;.;.;.;.;.;.;.;.;.;.;.;.;.;.;.;.;.[.}._._._._._._._._._._._._._._._._._._._._.",
"|.|.|.|.|.|.|.|.|.|.|.|.|.|.|.|.|.1.2.;.;.;.;.;.;.;.;.;.3.4.5.4.3.;.;.;.;.;.;.;.;.;.;.6.7.|.|.|.|.|.|.|.|.|.|.|.|.|.|.|.|.|.|.|.",
"|.|.|.|.|.|.|.|.|.|.|.|.|.|.|.|.7.^.8.9.0.;.;.;.;.a.9.b.c.c.c.c.c.d.e.5.;.;.3.f.g.h.i.;.2.j.|.|.|.|.|.|.|.|.|.|.|.|.|.|.|.|.|.|.",
"|.|.|.|.|.|.|.|.|.|.|.|.|.|.|.k.l.;.h.m.n.;.;.;.o.p.c.c.c.c.c.c.c.c.c.c.q.;.;.8.d.r.s.;.;.t.|.|.|.|.|.|.|.|.|.|.|.|.|.|.|.|.|.|.",
"|.|.|.|.|.|.|.|.|.|.|.|.|.|.|.u.;.;.;.3.3.;.;.v.w.c.c.c.c.c.c.c.c.c.c.c.c.x.y.z.y.A.B.C.;.;.D.|.|.|.|.|.|.|.|.|.|.|.|.|.|.|.|.|.",
"|.|.|.|.|.|.|.|.|.|.|.|.|.|.|.E.y.x.y.z.y.z.y.F.e.c.c.c.c.c.c.c.c.c.c.c.G.;.;.;.;.H.I.z.y.x.J.|.|.|.|.|.|.|.|.|.|.|.|.|.|.|.|.|.",
"|.|.|.|.|.|.|.|.|.|.|.|.|.|.|.K.L.;.;.;.;.;.;.;.;.o.M.c.c.c.c.c.c.c.b.N.;.;.;.;.;.;.;.;.;.O.P.|.|.|.|.|.|.|.|.|.|.|.|.|.|.|.|.|.",
"|.|.|.|.|.|.|.|.|.|.|.|.|.|.|.Q.R.;.;.;.;.;.;.;.;.;.;.S.T.N.U.V.W.S.;.;.;.;.;.;.;.;.;.;.;.X.Y.|.|.|.|.|.|.|.|.|.|.|.|.|.|.|.|.|.",
"|.|.|.|.|.|.|.|.|.|.|.|.|.|.|.Z.`. +;.;.;.;.;.;.;.;.;.;.;.;.;..+;.;.;.;.++@+#+$+%+&+*+=+-+;+>+|.|.|.|.|.|.|.|.|.|.|.|.|.|.|.|.|.",
"|.|.|.|.|.|.|.|.|.|.|.|.|.|.|._.,+'+)+;.;.;.;.;.;.;.;.!+~+;.;.A.B.;.;.;.;.{+]+^+/+(+_+:+<+[+|.|.|.|.|.|.|.|.|.|.|.|.|.|.|.|.|.|.",
"|.|.|.|.|.|.|.|.|.|.|.|.|.|.|.|.}+|+1+2+3+;.;.;.;.;.;.;.;.;.;.;..+;.;.;.;.;.4+5+6+6+6+6+6+7+|.|.|.|.|.|.|.|.|.|.|.|.|.|.|.|.|.|.",
"|.|.|.|.|.|.|.|.|.|.|.|.|.|.|.|.8+9+0+a+b+c+d+e+;.;.;.;.;.;.;.;.z.f+;.;.;.;.g+h+i+6+6+6+j+k+|.|.|.|.|.|.|.|.|.|.|.|.|.|.|.|.|.|.",
"|.|.|.|.|.|.|.|.|.|.|.|.|.|.|.|.|.l+m+6+n+o+p+q+r+s+t+u+v+w+x+x+w+y+z+t+A+B+C+D+E+6+6+F+G+|.|.|.|.|.|.|.|.|.|.|.|.|.|.|.|.|.|.|.",
"|.|.|.|.|.|.|.|.|.|.|.|.|.|.|.|.|.|.Z.9+6+6+6+H+I+J+K+L+M+N+O+O+P+Q+R+S+T+U+V+6+6+6+j+G+|.|.|.|.|.|.|.|.|.|.|.|.|.|.|.|.|.|.|.|.",
"|.|.|.|.|.|.|.|.|.|.|.|.|.|.|.|.|.|.|.8+W+6+6+6+6+6+6+6+6+X+Y+Y+Z+6+6+6+6+6+6+6+6+`+k+|.|.|.|.|.|.|.|.|.|.|.|.|.|.|.|.|.|.|.|.|.",
"|.|.|.|.|.|.|.|.|.|.|.|.|.|.|.|.|.|.|.|.|.G+ @m+6+6+6+6+6+6+6+6+6+6+6+6+6+6+m+.@+@|.|.|.|.|.|.|.|.|.|.|.|.|.|.|.|.|.|.|.|.|.|.|.",
"|.|.|.|.|.|.|.|.|.|.|.|.|.|.|.|.|.|.|.|.|.|.|.k+@@}+#@6+6+6+6+6+6+6+m+$@`+%@_.|.|.|.|.|.|.|.|.|.|.|.|.|.|.|.|.|.|.|.|.|.|.|.|.|.",
"|.|.|.|.|.|.|.|.|.|.|.|.|.|.|.|.|.|.|.|.|.|.|.|.|.|.|.|.&@G+*@*@G+&@|.|.|.|.|.|.|.|.|.|.|.|.|.|.|.|.|.|.|.|.|.|.|.|.|.|.|.|.|.|.",
"|.|.|.|.|.|.|.|.|.|.|.|.|.|.|.|.|.|.|.|.|.|.|.|.|.|.|.|.|.|.|.|.|.|.|.|.|.|.|.|.|.|.|.|.|.|.|.|.|.|.|.|.|.|.|.|.|.|.|.|.|.|.|.|.",
"|.|.|.|.|.|.|.|.|.|.|.|.|.|.|.|.|.|.|.|.|.|.|.|.|.|.|.|.|.|.|.|.|.|.|.|.|.|.|.|.|.|.|.|.|.|.|.|.|.|.|.|.|.|.|.|.|.|.|.|.|.|.|.|.",
"|.|.|.|.|.|.|.|.|.|.|.|.|.|.|.|.|.|.|.|.|.|.|.|.|.|.|.|.|.|.|.|.|.|.|.|.|.|.|.|.|.|.|.|.|.|.|.|.|.|.|.|.|.|.|.|.|.|.|.|.|.|.|.|.",
"|.|.|.|.|.|.|.|.|.|.|.|.|.|.|.|.|.|.|.|.|.|.|.|.|.|.|.|.|.|.|.|.|.|.|.|.|.|.|.|.|.|.|.|.|.|.|.|.|.|.|.|.|.|.|.|.|.|.|.|.|.|.|.|.",
"|.|.|.|.|.|.|.|.|.|.|.|.|.|.|.|.|.|.|.|.|.|.|.|.|.|.|.|.|.|.|.|.|.|.|.|.|.|.|.|.|.|.|.|.|.|.|.|.|.|.|.|.|.|.|.|.|.|.|.|.|.|.|.|.",
"|.|.|.|.|.|.|.|.|.|.|.|.|.|.|.|.|.|.|.|.|.|.|.|.|.|.|.|.|.|.|.|.|.|.|.|.|.|.|.|.|.|.|.|.|.|.|.|.|.|.|.|.|.|.|.|.|.|.|.|.|.|.|.|.",
"|.|.|.|.|.|.|.|.|.|.|.|.|.|.|.|.|.|.|.|.|.|.|.|.|.|.|.|.|.|.|.|.|.|.|.|.|.|.|.|.|.|.|.|.|.|.|.|.|.|.|.|.|.|.|.|.|.|.|.|.|.|.|.|.",
"|.|.|.|.|.|.|.|.|.|.|.|.|.|.|.|.|.|.|.|.|.|.|.|.|.|.|.|.|.|.|.|.|.|.|.|.|.|.|.|.|.|.|.|.|.|.|.|.|.|.|.|.|.|.|.|.|.|.|.|.|.|.|.|.",
"|.|.|.|.|.|.|.|.|.|.|.|.|.|.|.|.|.|.|.|.|.|.|.|.|.|.|.|.|.|.|.|.|.|.|.|.|.|.|.|.|.|.|.|.|.|.|.|.|.|.|.|.|.|.|.|.|.|.|.|.|.|.|.|.",
"|.|.|.|.|.|.|.|.|.|.|.|.|.|.|.|.|.|.|.|.|.|.|.|.|.|.|.|.|.|.|.|.|.|.|.|.|.|.|.|.|.|.|.|.|.|.|.|.|.|.|.|.|.|.|.|.|.|.|.|.|.|.|.|.",
"|.|.|.|.|.|.|.|.|.|.|.|.|.|.|.|.|.|.|.|.|.|.|.|.|.|.|.|.|.|.|.|.|.|.|.|.|.|.|.|.|.|.|.|.|.|.|.|.|.|.|.|.|.|.|.|.|.|.|.|.|.|.|.|.",
"|.|.|.|.|.|.|.|.|.|.|.|.|.|.|.|.|.|.|.|.|.|.|.|.|.|.|.|.|.|.|.|.|.|.|.|.|.|.|.|.|.|.|.|.|.|.|.|.|.|.|.|.|.|.|.|.|.|.|.|.|.|.|.|.",
"|.|.|.|.|.|.|.|.|.|.|.|.|.|.|.|.|.|.|.|.|.|.|.|.|.|.|.|.|.|.|.|.|.|.|.|.|.|.|.|.|.|.|.|.|.|.|.|.|.|.|.|.|.|.|.|.|.|.|.|.|.|.|.|.",
"|.|.|.|.|.|.|.|.|.|.|.|.|.|.|.|.|.|.|.|.|.|.|.|.|.|.|.|.|.|.|.|.|.|.|.|.|.|.|.|.|.|.|.|.|.|.|.|.|.|.|.|.|.|.|.|.|.|.|.|.|.|.|.|.",
"|.|.|.|.|.|.|.|.|.|.|.|.|.|.|.|.|.|.|.|.|.|.|.|.|.|.|.|.|.|.|.|.|.|.|.|.|.|.|.|.|.|.|.|.|.|.|.|.|.|.|.|.|.|.|.|.|.|.|.|.|.|.|.|.",
"|.|.|.|.|.|.|.|.|.|.|.|.|.|.|.|.|.|.|.|.|.|.|.|.|.|.|.|.|.|.|.|.|.|.|.|.|.|.|.|.|.|.|.|.|.|.|.|.|.|.|.|.|.|.|.|.|.|.|.|.|.|.|.|.",
"|.|.|.|.|.|.|.|.|.|.|.|.|.|.|.|.|.|.|.|.|.|.|.|.|.|.|.|.|.|.|.|.|.|.|.|.|.|.|.|.|.|.|.|.|.|.|.|.|.|.|.|.|.|.|.|.|.|.|.|.|.|.|.|.",
"|.|.|.|.|.|.|.|.|.|.|.|.|.|.|.|.|.|.|.|.|.|.|.|.|.|.|.|.|.|.|.|.|.|.|.|.|.|.|.|.|.|.|.|.|.|.|.|.|.|.|.|.|.|.|.|.|.|.|.|.|.|.|.|.",
"|.|.|.|.|.|.|.|.|.|.|.|.|.|.|.|.|.|.|.|.|.|.|.|.|.|.|.|.|.|.|.|.|.|.|.|.|.|.|.|.|.|.|.|.|.|.|.|.|.|.|.|.|.|.|.|.|.|.|.|.|.|.|.|."};
