/* XPM */
static char * water_xpm[] = {
"64 64 223 2",
"  	c #03C1B5",
". 	c #0AC1B4",
"+ 	c #21C1B1",
"@ 	c #2DC1AE",
"# 	c #3DC1A8",
"$ 	c #49C1A2",
"% 	c #4DC19F",
"& 	c #48C1A2",
"* 	c #3BC1A9",
"= 	c #2BC1AE",
"- 	c #1FC1B1",
"; 	c #07C1B5",
"> 	c #1AC1B2",
", 	c #50C19D",
"' 	c #6DC183",
") 	c #7EC169",
"! 	c #88C152",
"~ 	c #8DC13E",
"{ 	c #8FC137",
"] 	c #8DC13F",
"^ 	c #87C154",
"/ 	c #7DC16B",
"( 	c #6BC185",
"_ 	c #4CC1A0",
": 	c #17C1B3",
"< 	c #89C14D",
"[ 	c #8FC138",
"} 	c #6AC187",
"| 	c #37C1AA",
"1 	c #26C1B0",
"2 	c #6FC180",
"3 	c #8CC142",
"4 	c #8BC146",
"5 	c #6AC186",
"6 	c #3EC1A7",
"7 	c #84C15C",
"8 	c #81C164",
"9 	c #35C1AB",
"0 	c #34C1AC",
"a 	c #8EC036",
"b 	c #8CBE34",
"c 	c #8ABC32",
"d 	c #84B82C",
"e 	c #80B427",
"f 	c #7DB224",
"g 	c #7CB123",
"h 	c #84B72B",
"i 	c #89BC31",
"j 	c #88BB30",
"k 	c #87BA2F",
"l 	c #8BBE33",
"m 	c #2AC1AF",
"n 	c #79C172",
"o 	c #79AF20",
"p 	c #6EA70F",
"q 	c #84B82D",
"r 	c #8CBF34",
"s 	c #7FB426",
"t 	c #7BB021",
"u 	c #7EB325",
"v 	c #8BBD33",
"w 	c #82B62A",
"x 	c #71A913",
"y 	c #6FA710",
"z 	c #76AD1C",
"A 	c #71C17E",
"B 	c #38C1AA",
"C 	c #8DC140",
"D 	c #8DBF35",
"E 	c #86B92E",
"F 	c #8ABD32",
"G 	c #88BE2E",
"H 	c #8BBF31",
"I 	c #8DC035",
"J 	c #8EC136",
"K 	c #29C1AF",
"L 	c #4DC1A0",
"M 	c #8CC033",
"N 	c #8ABF31",
"O 	c #8ABF30",
"P 	c #89BF2F",
"Q 	c #88BE2D",
"R 	c #87BE2D",
"S 	c #7EB324",
"T 	c #7EB225",
"U 	c #8BC032",
"V 	c #89BE2E",
"W 	c #87BE2C",
"X 	c #88BF34",
"Y 	c #42C1A3",
"Z 	c #50C19E",
"` 	c #89BF30",
" .	c #8EC035",
"..	c #8EC13D",
"+.	c #49C2A7",
"@.	c #42BBA2",
"#.	c #94C446",
"$.	c #7EB224",
"%.	c #7CB122",
"&.	c #7DB223",
"*.	c #94C44D",
"=.	c #32BBA7",
"-.	c #15B9AB",
";.	c #8BB75A",
">.	c #92C33D",
",.	c #8FC136",
"'.	c #8EC135",
").	c #96C646",
"!.	c #84B25E",
"~.	c #0ABCAF",
"{.	c #05BDB1",
"].	c #499F7B",
"^.	c #9CC45C",
"/.	c #87BE2B",
"(.	c #91C23B",
"_.	c #A7D064",
":.	c #A3C965",
"<.	c #A2C765",
"[.	c #9FC564",
"}.	c #9EC364",
"|.	c #9CBF62",
"1.	c #97BB5E",
"2.	c #8DB255",
"3.	c #3FA184",
"4.	c #04BEB3",
"5.	c #03C0B5",
"6.	c #12ABA0",
"7.	c #549867",
"8.	c #99BF5C",
"9.	c #9CCA50",
"0.	c #7FB427",
"a.	c #8CBF35",
"b.	c #8DC034",
"c.	c #8CBD35",
"d.	c #71A43D",
"e.	c #48976E",
"f.	c #449873",
"g.	c #429A78",
"h.	c #3E9B7C",
"i.	c #3B9D81",
"j.	c #359F88",
"k.	c #10ADA3",
"l.	c #08B7AC",
"m.	c #12A79E",
"n.	c #469871",
"o.	c #83A950",
"p.	c #A1CA60",
"q.	c #9DCB51",
"r.	c #75B968",
"s.	c #24AA9C",
"t.	c #0EA89F",
"u.	c #07B9AE",
"v.	c #03C0B4",
"w.	c #0CAEA5",
"x.	c #0FA89F",
"y.	c #2CA28F",
"z.	c #569359",
"A.	c #7FA54B",
"B.	c #A1C764",
"C.	c #A7D163",
"D.	c #9AC94D",
"E.	c #94C440",
"F.	c #90C138",
"G.	c #94C541",
"H.	c #9BC94E",
"I.	c #A7D164",
"J.	c #9EC565",
"K.	c #4CA889",
"L.	c #0BB0A6",
"M.	c #0CACA3",
"N.	c #2DA28F",
"O.	c #46976E",
"P.	c #609246",
"Q.	c #83A74C",
"R.	c #92B758",
"S.	c #9CC25F",
"T.	c #A2C962",
"U.	c #A6CE64",
"V.	c #A8D265",
"W.	c #A9D365",
"X.	c #A3CD61",
"Y.	c #A1C962",
"Z.	c #9BC25F",
"`.	c #91B657",
" +	c #81A54B",
".+	c #5C9149",
"++	c #449872",
"@+	c #20A597",
"#+	c #0CAEA4",
"$+	c #04BFB3",
"%+	c #0BAFA5",
"&+	c #11A89E",
"*+	c #28A392",
"=+	c #3D9C7F",
"-+	c #48966D",
";+	c #50925D",
">+	c #569051",
",+	c #588E48",
"'+	c #5A8E45",
")+	c #588F48",
"!+	c #50935E",
"~+	c #47976E",
"{+	c #3B9C80",
"]+	c #26A493",
"^+	c #10A89E",
"/+	c #04BFB4",
"(+	c #08B6AC",
"_+	c #0DAAA1",
":+	c #0DA89F",
"<+	c #14A79D",
"[+	c #16A79C",
"}+	c #0DABA1",
"|+	c #08B8AD",
"1+	c #08B6AB",
"2+	c #0DACA2",
"3+	c #06BBB0",
"4+	c #09B5AA",
"5+	c #0DA9A0",
"6+	c #0DAAA0",
"7+	c #0DACA3",
"8+	c #09B5AB",
"9+	c #05BCB1",
"0+	c #04BEB2",
"                                                                                                                                ",
"                                                                                                                                ",
"                                                                                                                                ",
"                                                                                                                                ",
"                                                                                                                                ",
"                                                                                                                                ",
"                                                                                                                                ",
"                                                                                                                                ",
"                                                                                                                                ",
"                                                                                                                                ",
"                                                                                                                                ",
"                                                                                                                                ",
"                                                                                                                                ",
"                                                                                                                                ",
"                                                                                                                                ",
"                                                                                                                                ",
"                                                                                                                                ",
"                                                                                                                                ",
"                                                                                                                                ",
"                                                                                                                                ",
"                                                                                                                                ",
"                                                                                                                                ",
"                                                  . + @ # $ % % & * = - ;                                                       ",
"                                            > , ' ) ! ~ { { { { { { ] ^ / ( _ :                                                 ",
"                                        # ' < [ { { { { { { { { { { { { { { [ ! } |                                             ",
"                                    1 2 3 { { { { { { { { { { { { { { { { { { { { 4 5 -                                         ",
"                                  6 7 { { { { { { { { { { { { { { { { { { { { { { { { 8 9                                       ",
"                                0 ^ a b { { { { { { c d e f g f e h i a { { a d j k l { 7 m                                     ",
"                                n { o p q { { { r s t t t t t t t t t u v { { w x y z a { A                                     ",
"                              B C { D E F { { { e t t t t t t t t t t t f G H I J a { { { 4 K                                   ",
"                              L a M N O P G Q R S t t t t t t t t t t t T I U V W W W R Q X Y                                   ",
"                              Z ` N M I  .J { { r s t t t t t t t t t u v { { { { { { { { ..+.                                  ",
"                              @.#.{ { { { { { { { { c d e $.%.&.e h i a { { { { { { { { { *.=.                                  ",
"                              -.;.>.{ { { { { { { { { { { { I V { { { { { ,.J '. . .{ >.).!.~.                                  ",
"                              {.].^.>.{ { { { { { { { F J { { /.{ { { { (._.:.<.[.}.|.1.2.3.4.                                  ",
"                              5.6.7.8.9.{ { { { { { { 0.a.{ { b.P { { { { c.d.e.f.g.h.i.j.k.                                    ",
"                                l.m.n.o.p.q.,.{ { { { { { { { { W { { { { { [ r.s.t.t.t.t.u.                                    ",
"                                v.w.x.y.z.A.B.C.D.E.[ { { { { { H H { F.G.H.I.J.K.t.t.t.L.                                      ",
"                                  4.M.t.t.N.O.P.Q.R.S.T.U.V.W.W.V.X.Y.Z.`. +.+++@+t.t.#+$+                                      ",
"                                    $+%+t.t.t.&+*+=+-+;+>+,+'+'+)+>+!+~+{+]+^+t.t.t.L./+                                        ",
"                                      v.(+_+t.t.t.t.t.:+^+<+[+[+<+^+:+t.t.t.t.t.}+|+                                            ",
"                                          $+1+2+t.t.t.t.t.t.t.t.t.t.t.t.t.t.M.(+$+                                              ",
"                                                3+4+%+2+5+t.t.t.t.6+7+L.8+9+                                                    ",
"                                                      v./+$+0+0+$+/+v.                                                          ",
"                                                                                                                                ",
"                                                                                                                                ",
"                                                                                                                                ",
"                                                                                                                                ",
"                                                                                                                                ",
"                                                                                                                                ",
"                                                                                                                                ",
"                                                                                                                                ",
"                                                                                                                                ",
"                                                                                                                                ",
"                                                                                                                                ",
"                                                                                                                                ",
"                                                                                                                                ",
"                                                                                                                                ",
"                                                                                                                                ",
"                                                                                                                                ",
"                                                                                                                                ",
"                                                                                                                                ",
"                                                                                                                                ",
"                                                                                                                                "};
